<svg xmlns="http://www.w3.org/2000/svg" xmlns:xlink="http://www.w3.org/1999/xlink" xmlns:lucid="lucid" width="1870.89" height="680.53"><g transform="translate(1624.796657986111 100)" lucid:page-tab-id="0_0"><path d="M-2000-500H500v1500h-2500z" fill="#fff"/><path d="M-1620 95.67h120v120h-120v-120z" stroke="#000" stroke-opacity="0" fill="url(#a)"/><path d="M-1538.88 178.78c5.08 0 9.1 4.04 9.1 9.07 0 4.94-4.02 9-9.1 9-5 0-9.1-4.06-9.1-9 0-2.64 1.2-5.03 2.97-6.68l-5.25-8.74-.08.08h-17.5c-.64 0-1.3-.4-1.6-.97l-8.72-15c-.4-.6-.4-1.25 0-1.82l8.55-14.75-4.84-8c-.9.33-1.86.5-2.9.5-5 0-9.12-4.04-9.12-9 0-5.02 4.12-9.06 9.12-9.06 5 0 9.1 4.03 9.1 9.06 0 2.56-1.12 4.95-2.98 6.6l5.25 8.66h15.64c.64 0 1.3.4 1.6.98l8.72 15c.3.6.3 1.24 0 1.82l-7.6 13.03 5.82 9.72c.96-.33 1.93-.5 2.9-.5zm-12.58-10.06l7.66-13.1-7.66-13.1h-15.24l-7.66 13.1 7.66 13.1zm-29.84 10.56l4.36 6.34h16.05v3.7h-17c-.65 0-1.22-.32-1.62-.8l-5.24-7.6c-.65.17-1.3.25-2.02.25-5 0-9.1-4.04-9.1-9.07 0-2.3.88-4.37 2.33-5.93l-5.57-9.65c-.32-.58-.32-1.24 0-1.8l8.95-15.35 3.23 1.82-8.4 14.42 4.85 8.24c1.14-.5 2.43-.74 3.72-.74 5 0 9.1 4.04 9.1 8.98 0 2.97-1.44 5.53-3.62 7.18zm56.93-33.9l5.4 9.33c.33.6.33 1.24 0 1.82l-7.73 13.36-3.3-1.9 7.25-12.36-5-8.5c-.73.17-1.53.33-2.34.33-5 0-9.1-4.04-9.1-9.06 0-2.4.97-4.63 2.58-6.28l-4.52-6.5h-16.04v-3.72h17c.65 0 1.22.33 1.62.82l5.08 7.34c1.05-.4 2.18-.66 3.4-.66 5 0 9.1 4.04 9.1 8.98 0 2.9-1.37 5.36-3.38 7zm-62.4 32c2.9 0 5.3-2.3 5.3-5.28 0-2.88-2.4-5.27-5.3-5.27s-5.33 2.4-5.33 5.27c0 2.97 2.42 5.28 5.32 5.28zm9.42-48.64c3 0 5.33-2.4 5.33-5.28 0-2.96-2.34-5.35-5.33-5.35-2.9 0-5.32 2.4-5.32 5.36 0 2.9 2.42 5.28 5.33 5.28zm47.26 14.92c2.9 0 5.33-2.3 5.33-5.28 0-2.88-2.42-5.27-5.32-5.27-2.9 0-5.3 2.4-5.3 5.28 0 2.97 2.4 5.28 5.3 5.28zm-8.78 49.47c2.98 0 5.32-2.4 5.32-5.28 0-2.97-2.34-5.36-5.32-5.36-2.9 0-5.32 2.38-5.32 5.35 0 2.88 2.42 5.28 5.32 5.28z" stroke="#000" stroke-opacity="0" fill="#fff"/><use xlink:href="#b" transform="matrix(1,0,0,1,-1650,224.67473306158337) translate(47.16145833333334 21.52777777777778)"/><use xlink:href="#c" transform="matrix(1,0,0,1,-1650,224.67473306158337) translate(26.203342013888893 53.79340277777778)"/><path d="M-980-97h120V14h-120z" fill-opacity="0"/><path d="M-883.4-63.6c-.6-18.86-16.2-33.84-34.92-33.4-15.36-.1-28.32 8.88-33.6 23.3-16.2 2.23-27.96 15.77-28.08 32.2.6 18.1 15.72 32.3 33.84 31.86.96.1 1.92.1 2.88 0h8.52c-.48-1.33-.72-2.56-.72-4 0-1.9.36-3.55 1.32-5.1h-12c-13.08.44-24.12-9.66-24.84-22.76.12-12 8.76-21.76 20.52-23.2l5.4-.9 1.68-5.2c3.96-10.66 13.68-17.32 25.08-17.2 13.8-.34 25.32 10.54 25.92 24.52v7.77l7.68 1c9 1.2 15.72 8.54 15.96 17.64-.36 10.1-8.52 17.98-18.48 18.1h-8.64c-2.64-13.33-13.92-22.65-27.36-22.54-.36-.1-.72-.1-1.08 0-2.52.22-4.32 2.55-3.96 5 .24 2.55 2.52 4.2 5.04 4 10.32.55 18.12 9.54 17.52 19.86-.6 9.55-8.04 16.98-17.52 17.65-.36-.1-.72-.1-1.08 0-2.52.23-4.32 2.56-3.96 5 .24 2.56 2.52 4.22 5.04 4 13.8-.1 25.32-10 27.36-23.75h7.32c.48.1.96.1 1.44 0 14.88-.23 26.88-12.32 27.12-27.3-.24-13.55-10.08-24.65-23.4-26.54z" fill="url(#d)"/><path d="M-935.48-13.8a11.04 11.04 0 0 1 11.04-11.05A11.04 11.04 0 0 1-913.4-13.8a11.04 11.04 0 0 1-11.04 11.04 11.04 11.04 0 0 1-11.04-11.04z" fill="url(#e)"/><use xlink:href="#f" transform="matrix(1,0,0,1,-1010,23) translate(7.1332465277778 21.52777777777778)"/><use xlink:href="#g" transform="matrix(1,0,0,1,-1010,23) translate(124.49435763888889 21.52777777777778)"/><use xlink:href="#h" transform="matrix(1,0,0,1,-1010,23) translate(55.78233506944444 53.79340277777778)"/><use xlink:href="#i" transform="matrix(1,0,0,1,-1010,23) translate(72.25368923611111 53.79340277777778)"/><use xlink:href="#j" transform="matrix(1,0,0,1,-1010,23) translate(113.99631076388889 53.79340277777778)"/><path d="M-1360-100h120V14h-120z" fill-opacity="0"/><path d="M-1258-100c2.28 0 4.68.46 6.84 1.37 2.28.8 4.2 2.16 5.88 3.87 3.48 3.54 5.28 7.76 5.28 12.54v12.1c0 1.8-.6 3.3-1.8 4.55-1.2 1.02-2.64 1.48-4.2 1.48s-3.12-.45-4.32-1.47c-.48-.57-.96-1.37-1.32-2.05-.24-.8-.36-1.7-.36-2.5v-12.1c0-.68-.12-1.48-.48-2.16-.24-.7-.72-1.37-1.32-1.83-.48-.58-1.2-1.03-1.92-1.26-.72-.34-1.56-.46-2.28-.46h-84c-.72 0-1.56.12-2.28.46-.72.23-1.44.68-1.92 1.25-.6.45-1.08 1.13-1.32 1.82-.36.68-.48 1.48-.48 2.16v6.05h30.12c1.68 0 3.12.57 4.2 1.82.6.57 1.08 1.14 1.32 1.94.36.67.48 1.47.48 2.27 0 1.82-.6 3.3-1.8 4.56-1.2 1.02-2.64 1.48-4.2 1.48H-1348v54.27c0 1.6.6 3.08 1.8 4.22.48.56 1.2 1.02 1.92 1.36.72.23 1.56.46 2.28.46h15.12c1.68 0 3 .57 4.2 1.7 1.2 1.03 1.8 2.4 1.8 4.22 0 .8-.12 1.6-.48 2.4-.24.68-.72 1.37-1.32 1.94-1.2 1.02-2.64 1.48-4.2 1.48H-1342c-4.8 0-9.12-1.7-12.72-5.25-1.68-1.58-3-3.52-3.96-5.7-.84-2.15-1.32-4.55-1.32-6.83v-72.4c0-4.77 1.8-9 5.28-12.53 3.6-3.53 7.92-5.24 12.72-5.24h84zm-23.64 29.87c5.88 0 11.28 1.14 16.32 3.53 5.04 2.17 9.36 5.13 13.08 9 3.84 3.88 6.84 8.33 9 13.35 2.16 5 3.24 10.48 3.24 16.3 0 5.58-1.08 11.17-3.24 16.3-2.16 5.02-5.16 9.58-9 13.34-3.96 3.86-8.52 6.94-13.56 9-5.16 2.27-10.68 3.3-16.32 3.3-5.52 0-11.04-1.14-16.2-3.3-5.04-2.06-9.48-5.14-13.32-9-3.84-3.77-6.84-8.33-9-13.35-2.16-5.13-3.36-10.72-3.24-16.3 0-5.82 1.08-11.3 3.24-16.3 2.04-5.02 4.92-9.47 8.76-13.34 3.84-3.75 8.28-6.83 13.2-9 5.16-2.28 10.68-3.53 16.32-3.53h.72zm23.64 24.17c-3.24-4.1-6.84-6.96-11.04-8.9.84 1.37 1.44 2.85 2.04 4.34.6 1.36 1.32 2.85 1.92 4.56h7.08zm-24.12-7.64c-1.08 2.05-2.4 4.56-3.72 7.64h7.8c-1.32-3.42-2.76-5.93-4.08-7.64zm-29.76 25.65v3.08l.48 2.96h9.72c-.12-1.04-.24-2.06-.24-2.97V-30.92c0-1.02.12-2.05.24-3.07h-9.72l-.48 3.08v2.97zm6 18.12c3.12 4 6.84 6.96 11.04 8.78-.84-1.37-1.56-2.62-2.28-4-.48-1.7-1.08-3.18-1.8-4.78h-6.96zm6.96-36.13c.72-1.7 1.32-3.2 1.8-4.56.6-1.5 1.44-2.97 2.28-4.34-4.2 1.94-7.92 4.8-11.04 8.9h6.96zm16.8 43.66c.84-1.14 1.56-2.4 2.04-3.54l2.04-4h-7.8l3.72 7.54zm7.56-19.6c.36-1.04.48-2.06.48-2.97V-30.92c0-1.02-.12-2.05-.48-3.07h-14.76c-.36 1.03-.48 2.06-.48 3.08v6.05c0 .9.12 1.93.48 2.96h14.76zm5.52 20.85c4.2-1.82 7.8-4.8 11.04-8.78h-7.08c-.6 1.6-1.32 3.2-1.92 4.8-.6 1.36-1.2 2.73-2.04 3.98zm16.56-20.86c.12-1.04.24-2.06.24-2.97.24-2.06.24-4.1 0-6.05 0-1.02-.12-2.05-.24-3.07h-9.84c.24 1.03.24 2.06.24 3.08v6.05c0 .9 0 1.93-.24 2.96h9.84z" fill="url(#k)"/><use xlink:href="#l" transform="matrix(1,0,0,1,-1390,23) translate(42.00737847222223 21.52777777777778)"/><use xlink:href="#m" transform="matrix(1,0,0,1,-1390,23) translate(89.62022569444446 21.52777777777778)"/><path d="M-780 140h120v120h-120V140z" stroke="#fff" stroke-opacity="0" stroke-width="2" fill="#3f8624"/><path d="M-722.3 160c-17.08 0-36.1 5.2-36.1 12.72v.16l.07.72v.24l7.7 57.12c.22 6.56 17.45 9.04 28.26 9.04 3.97 0 7.28-.24 11.17-.72l-.43-3.2c-3.67.48-6.85.72-10.6.72-15.35 0-25.15-3.92-25.15-6 .07-.08.07-.08 0-.16l-7-52.56c.66.4 1.3.72 2.03 1.12.36.16.65.32 1 .4.37.16.73.32 1.1.4.35.16 1.2.48 1.86.72.73.16 1.24.32 1.9.56l1.86.48.87.16c3.96.88 7.27 1.44 11.3 1.76l2.6.24c2.53.16 5.12.24 7.65.24 2.52 0 5.1-.08 7.64-.24.86 0 1.8-.16 2.66-.24 3.17-.32 6.2-.72 9.08-1.28l1.37-.32.94-.16.65-.16c1-.24 1.95-.48 2.88-.8l.94-.24c.65-.24 1.3-.48 1.87-.72.37-.08.74-.24 1.1-.4.36-.08.64-.24.93-.4.8-.4 1.37-.72 2.1-1.12l-3.47 25.04 1.8.56 1.37.32.44-3.52c-.58-.4-1.16-.72-1.8-1.04l-.3-.16 1.66-2.8.15.16.8.4 3.1-23.2v-.88-.24c.13-7.52-18.9-12.72-35.98-12.72zm31.14 14.96c-1.08.72-2.02 1.2-3.17 1.6-.36.16-.65.24-.94.4-.57.16-1.08.4-1.73.56l-1 .32c-1 .32-2.1.64-3.18.88l-1.22.24-2.17.48c-1.08.16-2.3.32-3.53.56l-2 .24-2.68.24c-.94.08-1.5.16-2.24.16-2.3.16-4.68.24-7.2.24-2.45 0-4.76-.08-7.14-.24-.72 0-1.5-.08-2.23-.16-.72-.08-1.8-.16-2.66-.24-.94-.16-1.37-.16-2.02-.24-2.52-.4-4.83-.8-6.92-1.28l-2.23-.56c-.72-.24-1.44-.4-2.1-.64l-.93-.32c-.58-.16-1.15-.4-1.66-.64-1.37-.48-2.45-1.12-3.6-1.92-.3-.24-.5-.48-.8-.8-.07-.08-.14-.16-.2-.32-.08-.08-.15-.16-.23-.32-.07-.08-.07-.16-.07-.24v-.32c.22-3.36 13.7-9.44 32.87-9.44 19.17 0 32.72 6.08 32.94 9.44v.32c-.08.08-.08.16-.16.24 0 .16-.07.24-.14.32-.07.16-.14.24-.3.32-.42.48-.78.8-1.36 1.12z" stroke="#fff" stroke-opacity="0" stroke-width="2" fill="#fff"/><path d="M-755.14 173c.02.12.05.2.1.3l-.1-.23zM-753.8 174.7c1.17.84 2.24 1.42 3.58 1.94-1.34-.5-2.4-1.1-3.57-1.94zM-701.28 178.8c1.17-.27 2.27-.58 3.2-.88-.93.32-2.03.6-3.2.88zM-691.15 174.96c-1.06.68-2.02 1.16-3.2 1.6 1.18-.44 2.14-.92 3.2-1.6zM-691.73 203.66l1.33.34-.43 3.2-.13.9-3.2-.4.18-1.36.43-3.2zM-690.2 196.62l.74.42-.46 3.42c-.54-.33-1.14-.67-1.8-1.03l-.28-.14 1.6-2.8zM-689.46 173c-.02.1-.05.17-.1.25.05-.08.08-.16.1-.24z" stroke="#fff" stroke-opacity="0" stroke-width="2" fill="#fff"/><path d="M-682.4 206.6c-.97 1.02-2.24 1.47-3.62 1.3-1.7-.03-3.17-.24-4.83-.7l-1.74-.46-1.33-.4c-9.42-3.14-17.2-6.33-26.15-10.67l-1.1-.5 1.38-2.9 1.1.53c8.63 4.16 16.14 7.23 25.2 10.33l1.78.54 1.3.33c3.92.97 5.2.7 5.54.56-.15-.4-.95-1.6-5.06-4.1-.55-.35-1.15-.68-1.82-1.06l-.24-.1 1.6-2.8.22.13.72.4c4.98 2.83 7.4 5.02 7.8 7.06.14.93-.1 1.8-.73 2.5z" stroke="#fff" stroke-opacity="0" stroke-width="2" fill="#fff"/><path d="M-722.3 196.45c-1.98 0-3.6-1.6-3.6-3.6s1.63-3.6 3.6-3.6c1.98 0 3.58 1.58 3.6 3.55.04 1.98-1.55 3.62-3.54 3.65h-.05zm0-4c-.2 0-.4.18-.4.4 0 .43.82.43.82 0 0-.22-.18-.4-.4-.4zM-687.73 226.78h-6.34l3.1 5.43 5.38 1.5-.85 3.07-4.36-1.22-1.2 4.45-3.08-.83 1.4-5.3-3.17-5.5-3.1 5.4 1.36 5.4-3.1.8-1.13-4.36-4.42 1.17-.82-3.08 5.28-1.43 3.18-5.5h-6.25l-4 3.9-2.2-2.3 3.24-3.13-3.27-3.3 2.26-2.24 3.87 3.88h6.35l-3.1-5.42-5.38-1.48.85-3.08 4.36 1.2 1.2-4.43 3.08.83-1.4 5.3 3.17 5.48 3.1-5.4-1.36-5.38 3.1-.8 1.13 4.35 4.42-1.15.83 3.08-5.28 1.42-3.17 5.48h6.25l4-3.88 2.2 2.28-3.24 3.15 3.26 3.28-2.26 2.27-3.87-3.9z" stroke="#fff" stroke-opacity="0" stroke-width="2" fill="#fff"/><use xlink:href="#n" transform="matrix(1,0,0,1,-810,269) translate(27.45659722222223 21.52777777777778)"/><path d="M-780 360h120v120h-120V360z" stroke="#fff" stroke-opacity="0" stroke-width="2" fill="#3f8624"/><path d="M-722.3 380c-17.08 0-36.1 5.2-36.1 12.72v.16l.07.72v.24l7.7 57.12c.22 6.56 17.45 9.04 28.26 9.04 3.97 0 7.28-.24 11.17-.72l-.43-3.2c-3.67.48-6.85.72-10.6.72-15.35 0-25.15-3.92-25.15-6 .07-.08.07-.08 0-.16l-7-52.56c.66.4 1.3.72 2.03 1.12.36.16.65.32 1 .4.37.16.73.32 1.1.4.35.16 1.2.48 1.86.72.73.16 1.24.32 1.9.56l1.86.48.87.16c3.96.88 7.27 1.44 11.3 1.76l2.6.24c2.53.16 5.12.24 7.65.24 2.52 0 5.1-.08 7.64-.24.86 0 1.8-.16 2.66-.24 3.17-.32 6.2-.72 9.08-1.28l1.37-.32.94-.16.65-.16c1-.24 1.95-.48 2.88-.8l.94-.24c.65-.24 1.3-.48 1.87-.72.37-.08.74-.24 1.1-.4.36-.08.64-.24.93-.4.8-.4 1.37-.72 2.1-1.12l-3.47 25.04 1.8.56 1.37.32.44-3.52c-.58-.4-1.16-.72-1.8-1.04l-.3-.16 1.66-2.8.15.16.8.4 3.1-23.2v-.88-.24c.13-7.52-18.9-12.72-35.98-12.72zm31.14 14.96c-1.08.72-2.02 1.2-3.17 1.6-.36.16-.65.24-.94.4-.57.16-1.08.4-1.73.56l-1 .32c-1 .32-2.1.64-3.18.88l-1.22.24-2.17.48c-1.08.16-2.3.32-3.53.56l-2 .24-2.68.24c-.94.08-1.5.16-2.24.16-2.3.16-4.68.24-7.2.24-2.45 0-4.76-.08-7.14-.24-.72 0-1.5-.08-2.23-.16-.72-.08-1.8-.16-2.66-.24-.94-.16-1.37-.16-2.02-.24-2.52-.4-4.83-.8-6.92-1.28l-2.23-.56c-.72-.24-1.44-.4-2.1-.64l-.93-.32c-.58-.16-1.15-.4-1.66-.64-1.37-.48-2.45-1.12-3.6-1.92-.3-.24-.5-.48-.8-.8-.07-.08-.14-.16-.2-.32-.08-.08-.15-.16-.23-.32-.07-.08-.07-.16-.07-.24v-.32c.22-3.36 13.7-9.44 32.87-9.44 19.17 0 32.72 6.08 32.94 9.44v.32c-.08.08-.08.16-.16.24 0 .16-.07.24-.14.32-.07.16-.14.24-.3.32-.42.48-.78.8-1.36 1.12z" stroke="#fff" stroke-opacity="0" stroke-width="2" fill="#fff"/><path d="M-755.14 393c.02.12.05.2.1.3l-.1-.23zM-753.8 394.7c1.17.84 2.24 1.42 3.58 1.94-1.34-.5-2.4-1.1-3.57-1.94zM-701.28 398.8c1.17-.27 2.27-.58 3.2-.88-.93.32-2.03.6-3.2.88zM-691.15 394.96c-1.06.68-2.02 1.16-3.2 1.6 1.18-.44 2.14-.92 3.2-1.6zM-691.73 423.66l1.33.34-.43 3.2-.13.9-3.2-.4.18-1.36.43-3.2zM-690.2 416.62l.74.42-.46 3.42c-.54-.33-1.14-.67-1.8-1.03l-.28-.14 1.6-2.8zM-689.46 393c-.02.1-.05.17-.1.25.05-.08.08-.15.1-.24z" stroke="#fff" stroke-opacity="0" stroke-width="2" fill="#fff"/><path d="M-682.4 426.6c-.97 1.02-2.24 1.47-3.62 1.3v.02c-1.7-.05-3.17-.25-4.83-.7l-1.74-.48-1.33-.4c-9.42-3.14-17.2-6.32-26.15-10.67l-1.1-.5 1.38-2.9 1.1.54c8.63 4.16 16.14 7.23 25.2 10.33l1.78.54 1.3.33c3.92.97 5.2.7 5.54.56-.15-.4-.95-1.6-5.06-4.1-.55-.35-1.15-.68-1.82-1.06l-.24-.1 1.6-2.8.22.13.72.4c4.98 2.83 7.4 5.02 7.8 7.06.14.93-.1 1.8-.73 2.5z" stroke="#fff" stroke-opacity="0" stroke-width="2" fill="#fff"/><path d="M-722.3 416.45c-1.98 0-3.6-1.62-3.6-3.6 0-2 1.63-3.6 3.6-3.6 1.98 0 3.58 1.58 3.6 3.55.04 2-1.55 3.62-3.54 3.65h-.05zm0-4c-.2 0-.4.18-.4.4 0 .43.82.43.82 0 0-.23-.18-.4-.4-.4zM-687.73 446.78h-6.34l3.1 5.43 5.38 1.5-.85 3.07-4.36-1.2-1.2 4.43-3.08-.83 1.4-5.3-3.17-5.5-3.1 5.4 1.36 5.4-3.1.8-1.13-4.36-4.42 1.17-.82-3.08 5.28-1.43 3.18-5.5h-6.25l-4 3.9-2.2-2.3 3.24-3.13-3.27-3.3 2.26-2.24 3.87 3.88h6.35l-3.1-5.42-5.38-1.48.85-3.08 4.36 1.2 1.2-4.43 3.08.83-1.4 5.3 3.17 5.48 3.1-5.4-1.36-5.38 3.1-.8 1.13 4.35 4.42-1.15.83 3.08-5.28 1.42-3.17 5.48h6.25l4-3.88 2.2 2.28-3.24 3.14 3.26 3.3-2.26 2.25-3.87-3.9z" stroke="#fff" stroke-opacity="0" stroke-width="2" fill="#fff"/><use xlink:href="#o" transform="matrix(1,0,0,1,-810,489) translate(-12.506510416666657 21.52777777777778)"/><path d="M-1100 100c33.12 0 60 26.88 60 60 0 33.12-26.88 60-60 60-33.12 0-60-26.88-60-60 0-33.12 26.88-60 60-60zm0 114.6c30.12 0 54.6-24.48 54.6-54.6s-24.48-54.6-54.6-54.6-54.6 24.48-54.6 54.6 24.48 54.6 54.6 54.6zm35.76-40.68c1.56 0 2.76 1.32 2.76 2.76v16.68c0 1.56-1.2 2.76-2.76 2.76h-19.32c-1.08 0-2.04-.6-2.4-1.56l-27.12-58.08h-10.8c-.72 0-1.44-.24-1.92-.84-.48-.48-.84-1.2-.84-1.92l.12-16.68c0-1.56 1.2-2.76 2.64-2.76h24.24c.96 0 1.92.6 2.4 1.68l26.88 57.96zm-2.64 16.8v-11.28h-5.16c-1.08 0-2.04-.6-2.52-1.56l-26.88-58.08h-19.68v11.28h9.84c1.08 0 2.04.6 2.4 1.56l27.12 58.08zm-46.44-43.8l10.32 21.36c.36.84.36 1.68 0 2.4l-11.28 23.88c-.48.96-1.44 1.56-2.4 1.56h-20.76c-.84 0-1.8-.48-2.28-1.2-.48-.84-.48-1.8-.12-2.64l21.6-45.36c.48-.96 1.44-1.56 2.4-1.56 1.08 0 2.04.6 2.52 1.56zm-5.16 43.8l10.08-21.24-7.32-15-17.4 36.24z" stroke="#000" stroke-opacity="0" fill="#d45b07"/><use xlink:href="#p" transform="matrix(1,0,0,1,-1190,229) translate(3.557942708333343 21.52777777777778)"/><use xlink:href="#q" transform="matrix(1,0,0,1,-1190,229) translate(94.00933159722223 21.52777777777778)"/><use xlink:href="#h" transform="matrix(1,0,0,1,-1190,229) translate(33.505859375000014 53.79340277777778)"/><use xlink:href="#r" transform="matrix(1,0,0,1,-1190,229) translate(49.97721354166668 53.79340277777778)"/><path d="M-1499.5 155.68h323.3" stroke="#3a414a" fill="none"/><path d="M-1499.5 156.15h-.5v-.95h.5z" stroke="#3a414a" stroke-width=".05" fill="#3a414a"/><path d="M-1161.44 155.68l-14.26 4.63v-9.26z" stroke="#3a414a" fill="#3a414a"/><path d="M-1299.53 50.98l.07.88.2.85.34.8.45.75.56.66.65.57.74.45.8.33.84.2.88.07h188l1 .08.98.24.94.4.87.52.78.66.66.77.53.86.4.94.23 1 .07.98v20.64h-.94v-20.6l-.07-.88-.2-.85-.34-.8-.45-.75-.56-.66-.65-.57-.74-.45-.8-.33-.84-.2-.88-.07h-188l-1-.08-.98-.24-.94-.4-.87-.52-.78-.66-.66-.77-.53-.86-.4-.94-.23-1-.07-.98V47h.94zm0-24.98h-.94V14.5h.94z" stroke="#3a414a" stroke-width=".05" fill="#3a414a"/><path d="M-1299.53 14.5h-.94V14h.94z" fill="#3a414a"/><path stroke="#3a414a" stroke-width=".05" fill="#3a414a"/><path d="M-1100 98.38l-4.63-14.26h9.27z" fill="#3a414a"/><path d="M-1100 99.92l-5.3-16.28h10.6zm-3.98-15.33l3.98 12.25 3.98-12.26zM-1003.87 57.48h-90.1l-.9.06-.84.2-.8.34-.75.45-.66.56-.57.65-.45.74-.33.8-.2.84-.08.88v20.6h-.94V62.98l.07-1 .24-.98.4-.94.52-.87.66-.78.77-.66.86-.53.94-.4 1-.23.98-.08h90.15zM-919.52 25h-.96V14.5h.96z" stroke="#3a414a" stroke-width=".05" fill="#3a414a"/><path d="M-919.52 14.5h-.96V14h.96zm0-.87l-.96.1V11h.96z" fill="#3a414a"/><path stroke="#3a414a" stroke-width=".05" fill="#3a414a"/><path d="M-1100 98.38l-4.63-14.26h9.27z" fill="#3a414a"/><path d="M-1100 99.92l-5.3-16.28h10.6zm-3.98-15.33l3.98 12.25 3.98-12.26zM-796.38 200.47h-17.6l-.88.07-.85.2-.8.34-.75.45-.66.56-.57.65-.45.74-.33.8-.2.84-.07.88v48l-.08 1-.24.98-.4.94-.52.87-.66.78-.77.66-.86.53-.94.4-1 .23-.98.08h-186v-.96h185.96l.88-.06.85-.2.8-.34.75-.45.66-.56.57-.65.45-.74.33-.8.2-.84.07-.88v-48l.08-1 .24-.98.4-.94.52-.87.66-.78.77-.66.86-.53.94-.4 1-.23.98-.07h17.64zM-1099.53 232h-.94v-11.5h.94z" stroke="#3a414a" stroke-width=".05" fill="#3a414a"/><path d="M-1100 220l.47-.02v.53h-.94V220z" fill="#3a414a"/><path stroke="#3a414a" stroke-width=".05" fill="#3a414a"/><path d="M-781.62 200l-14.26 4.63v-9.26z" fill="#3a414a"/><path d="M-780.08 200l-16.28 5.3v-10.6zm-15.33 3.98l12.25-3.98-12.26-3.98zM-1099.53 413.98l.07.88.2.85.34.8.45.75.56.66.65.57.74.45.8.33.84.2.88.07h297.6v.96h-297.64l-1-.08-.98-.24-.94-.4-.87-.52-.78-.66-.66-.77-.53-.86-.4-.94-.23-1-.07-.98V289.27h.94zm0-181.98h-.94v-11.5h.94z" stroke="#3a414a" stroke-width=".05" fill="#3a414a"/><path d="M-1100 220l.47-.02v.53h-.94V220z" fill="#3a414a"/><path stroke="#3a414a" stroke-width=".05" fill="#3a414a"/><path d="M-781.62 420l-14.26 4.63v-9.26z" fill="#3a414a"/><path d="M-780.08 420l-16.28 5.3v-10.6zm-15.33 3.98l12.25-3.98-12.26-3.98z" stroke="#3a414a" stroke-width=".05" fill="#3a414a"/><path d="M-180 100c33.12 0 60 26.88 60 60 0 33.12-26.88 60-60 60-33.12 0-60-26.88-60-60 0-33.12 26.88-60 60-60zm0 114.6c30.12 0 54.6-24.48 54.6-54.6s-24.48-54.6-54.6-54.6-54.6 24.48-54.6 54.6 24.48 54.6 54.6 54.6zm35.76-40.68c1.56 0 2.76 1.32 2.76 2.76v16.68c0 1.56-1.2 2.76-2.76 2.76h-19.32c-1.08 0-2.04-.6-2.4-1.56l-27.12-58.08h-10.8c-.72 0-1.44-.24-1.92-.84-.48-.48-.84-1.2-.84-1.92l.12-16.68c0-1.56 1.2-2.76 2.64-2.76h24.24c.96 0 1.92.6 2.4 1.68l26.88 57.96zm-2.64 16.8v-11.28h-5.16c-1.08 0-2.04-.6-2.52-1.56l-26.88-58.08h-19.68v11.28h9.84c1.08 0 2.04.6 2.4 1.56l27.12 58.08zm-46.44-43.8l10.32 21.36c.36.84.36 1.68 0 2.4l-11.28 23.88c-.48.96-1.44 1.56-2.4 1.56h-20.76c-.84 0-1.8-.48-2.28-1.2-.48-.84-.48-1.8-.12-2.64l21.6-45.36c.48-.96 1.44-1.56 2.4-1.56 1.08 0 2.04.6 2.52 1.56zm-5.16 43.8l10.08-21.24-7.32-15-17.4 36.24z" stroke="#000" stroke-opacity="0" fill="#d45b07"/><use xlink:href="#p" transform="matrix(1,0,0,1,-270,229) translate(2.6736111111111143 21.52777777777778)"/><use xlink:href="#s" transform="matrix(1,0,0,1,-270,229) translate(93.125 21.52777777777778)"/><use xlink:href="#t" transform="matrix(1,0,0,1,-270,229) translate(44.779730902777786 53.79340277777778)"/><path d="M-1440 109.1a6 6 0 0 1 6-6h131.9a6 6 0 0 1 6 6V134a6 6 0 0 1-6 6H-1434a6 6 0 0 1-6-6z" fill="none"/><use xlink:href="#u" transform="matrix(1,0,0,1,-1435,108.10197916666667) translate(0 21.58376736111111)"/><use xlink:href="#v" transform="matrix(1,0,0,1,-1435,108.10197916666667) translate(58.127170138888886 21.58376736111111)"/><path d="M-240 360h120v120h-120V360z" stroke="#000" stroke-opacity="0" fill="#e7157b"/><path d="M-196.88 425.46l4.45-4.42c.25-.27.42-.7.42-1.1 0-.34-.1-.76-.43-1.04l-4.45-4.48-2.2 2.07 1.94 1.92h-6.88v3.04h6.97l-2.02 1.93 2.2 2.06zm34.35.14l5.97-4.5c.42-.26.58-.68.58-1.16 0-.48-.16-.9-.58-1.17l-5.97-4.5-1.85 2.36 2.44 1.8H-168v3.03h6.06l-2.44 1.8 1.85 2.34zm-24.7-5.66c0 3.17-.5 6.14-1.5 8.76 2.68-1.03 5.7-1.58 8.73-1.58 3.1 0 6.13.55 8.82 1.58-1-2.62-1.6-5.6-1.6-8.76 0-3.17.6-6.14 1.6-8.76-5.38 2.07-12.18 2.07-17.56 0 1 2.62 1.52 5.6 1.52 8.76zm-7.3 14.5c-.34-.3-.42-.7-.42-1.05 0-.42.08-.83.42-1.1 2.7-2.7 4.37-7.32 4.37-12.36 0-5.04-1.68-9.66-4.37-12.35-.34-.3-.42-.7-.42-1.12 0-.34.08-.75.42-1.03.6-.55 1.5-.55 2.1 0 5.8 5.8 19.07 5.8 24.95 0 .58-.55 1.5-.55 2.1 0 .25.28.42.7.42 1.04 0 .4-.17.8-.42 1.1-2.78 2.68-4.37 7.3-4.37 12.34s1.6 9.66 4.37 12.35c.25.27.42.68.42 1.1 0 .34-.17.75-.42 1.03-.34.28-.68.4-1.1.4-.33 0-.75-.12-1-.4-5.88-5.8-19.16-5.8-24.95 0-.6.55-1.5.55-2.1 0zm53.5-14.5c0-1.38-.5-2.7-1.5-3.66-1-1.03-2.36-1.5-3.7-1.5-1.35 0-2.7.47-3.7 1.5-2 2-2 5.32 0 7.32 2.02 2.07 5.38 2.07 7.4 0 1-.97 1.5-2.28 1.5-3.66zm.6 5.8c-1.6 1.58-3.7 2.4-5.8 2.4-2.1 0-4.2-.82-5.8-2.4-3.27-3.18-3.27-8.42 0-11.6 3.2-3.17 8.4-3.17 11.6 0 3.27 3.18 3.27 8.42 0 11.6zm-68.13-5.73c0-1.44-.5-2.68-1.5-3.72-1.02-.96-2.28-1.5-3.7-1.5-1.44 0-2.7.54-3.7 1.5-1 1.04-1.52 2.28-1.52 3.73 0 1.4.5 2.7 1.52 3.67 2 1.93 5.46 1.93 7.4 0 1-.97 1.5-2.28 1.5-3.66zm.6 5.74c-1.6 1.65-3.7 2.4-5.8 2.4-2.1 0-4.2-.75-5.8-2.4-3.28-3.18-3.28-8.35 0-11.53 3.2-3.23 8.4-3.23 11.6 0 3.26 3.2 3.26 8.36 0 11.54zm50.3 16.5c-5.96 5.92-13.94 9.23-22.42 9.23-8.5 0-16.47-3.3-22.43-9.24-4.13-4.07-6.4-8.97-7.57-12.35l-2.86.96c1.26 3.73 3.78 9.04 8.32 13.53 6.54 6.48 15.2 10.07 24.52 10.07 9.24 0 17.97-3.6 24.52-10.07 3.78-3.8 6.8-8.56 8.5-13.53l-2.78-.96c-1.6 4.55-4.37 8.9-7.82 12.35zm-52.4-32.24l-2.87-.96c1.85-5.25 4.8-10 8.32-13.53 6.54-6.47 15.2-10.06 24.52-10.06 9.24 0 17.97 3.6 24.52 10.07 3.7 3.74 6.8 8.64 8.5 13.54l-2.78.96c-1.6-4.48-4.46-8.97-7.82-12.35-5.96-5.93-13.94-9.24-22.42-9.24-8.5 0-16.47 3.32-22.43 9.25-3.2 3.18-5.9 7.6-7.57 12.35z" stroke="#000" stroke-opacity="0" fill="#fff"/><use xlink:href="#w" transform="matrix(1,0,0,1,-270,489) translate(8.511284722222229 21.52777777777778)"/><use xlink:href="#x" transform="matrix(1,0,0,1,-270,489) translate(100.43836805555554 21.52777777777778)"/><use xlink:href="#y" transform="matrix(1,0,0,1,-270,489) translate(12.55859375 53.79340277777778)"/><use xlink:href="#z" transform="matrix(1,0,0,1,-270,489) translate(87.99262152777777 53.79340277777778)"/><use xlink:href="#A" transform="matrix(1,0,0,1,-270,489) translate(13.177083333333343 86.05902777777777)"/><use xlink:href="#B" transform="matrix(1,0,0,1,-270,489) translate(113.20963541666666 86.05902777777777)"/><path d="M-659.5 420h403.12" stroke="#3a414a" fill="none"/><path d="M-659.5 420.48h-.5v-.96h.5z" stroke="#3a414a" stroke-width=".05" fill="#3a414a"/><path d="M-241.62 420l-14.26 4.63v-9.26z" stroke="#3a414a" fill="#3a414a"/><path d="M-609.1 366a6 6 0 0 1 6-6h306.2a6 6 0 0 1 6 6v24.9a6 6 0 0 1-6 6h-306.2a6 6 0 0 1-6-6z" fill="none"/><g><use xlink:href="#C" transform="matrix(1,0,0,1,-604.0902864583334,365) translate(0 21.58376736111111)"/><use xlink:href="#D" transform="matrix(1,0,0,1,-604.0902864583334,365) translate(51.7578125 21.58376736111111)"/><use xlink:href="#E" transform="matrix(1,0,0,1,-604.0902864583334,365) translate(133.76736111111111 21.58376736111111)"/><use xlink:href="#F" transform="matrix(1,0,0,1,-604.0902864583334,365) translate(166.47135416666669 21.58376736111111)"/><use xlink:href="#G" transform="matrix(1,0,0,1,-604.0902864583334,365) translate(209.55946180555557 21.58376736111111)"/></g><path d="M-179.53 359.5h-.94v-75.23h.94z" stroke="#3a414a" stroke-width=".05" fill="#3a414a"/><path d="M-179.53 360h-.94v-.5h.94z" fill="#3a414a"/><path stroke="#3a414a" stroke-width=".05" fill="#3a414a"/><path d="M-176.63 232h-6.74l3.37-10.38z" fill="#3a414a"/><path d="M-176.13 232h-1l-2.87-8.84-2.87 8.84h-1l3.87-11.92z" stroke="#3a414a" stroke-width=".05" fill="#3a414a"/><path d="M120 100h120v120H120V100z" stroke="#000" stroke-opacity="0" fill="#e7157b"/><path d="M202.6 170.14c0-5.92-4.8-10.65-10.76-10.65-5.88 0-10.66 4.72-10.66 10.64 0 5.85 4.78 10.58 10.66 10.58 5.97 0 10.76-4.73 10.76-10.58m3.02 0c0 7.5-6.13 13.58-13.78 13.58-7.56 0-13.7-6.08-13.7-13.58 0-7.57 6.14-13.65 13.7-13.65 7.65 0 13.78 6.06 13.78 13.64m12.68 20.48l-10.58-9.38c-.84 1.2-1.76 2.25-2.86 3.22l10.5 9.45c.84.76 2.27.7 3.03-.14.83-.9.74-2.32-.1-3.14m-26.46-4.2c9.08 0 16.47-7.28 16.47-16.28s-7.38-16.35-16.46-16.35c-8.98 0-16.38 7.34-16.38 16.34s7.4 16.28 16.38 16.28m28.82 9.3c-1 1.12-2.44 1.72-3.87 1.72-1.27 0-2.53-.45-3.45-1.35l-10.92-9.76c-3.1 1.95-6.64 3.07-10.6 3.07-10.65 0-19.4-8.6-19.4-19.26 0-10.72 8.75-19.35 19.4-19.35 10.77 0 19.5 8.6 19.5 19.34 0 3-.75 5.93-2 8.48l11 9.82c2.1 1.88 2.26 5.18.33 7.28m-68.72-51.68c0 .75 0 1.58.1 2.33.07.37-.1.82-.35 1.12-.26.3-.5.44-.85.5-3.7.9-9.83 3.84-9.83 12.47 0 6.52 3.62 10.12 6.64 12 1.1.6 2.27.97 3.6.97l18.16.07v2.94H151.2c-1.86 0-3.62-.53-5.14-1.43-3.02-1.86-8.06-6.2-8.06-14.53 0-10.06 6.9-13.73 10.92-15.08v-1.36c0-8.17 5.54-16.72 13.02-19.8 8.65-3.6 17.8-1.8 24.53 4.8 2.1 2.03 3.78 4.58 5.12 7.43 1.76-1.43 3.94-2.25 6.2-2.25 4.54 0 9.58 3.37 10.5 10.8 4.2.97 13.1 4.34 13.1 15.52 0 4.5-1.42 8.18-4.2 11.03l-2.1-2.1c2.2-2.25 3.3-5.25 3.3-8.93 0-9.75-8.24-12.22-11.77-12.82-.42 0-.76-.23-1-.6-.26-.3-.35-.75-.26-1.13-.5-6.1-4.12-8.78-7.56-8.78-2.1 0-4.1 1.04-5.54 2.84-.33.45-.84.68-1.42.6-.5-.07-1-.44-1.18-.97-1.26-3.38-3.02-6.3-5.3-8.48-5.8-5.78-13.77-7.28-21.24-4.2-6.3 2.62-11.18 10.05-11.18 17.02" stroke="#000" stroke-opacity="0" fill="#fff"/><g><use xlink:href="#b" transform="matrix(1,0,0,1,90,229) translate(47.16145833333334 21.52777777777778)"/><use xlink:href="#H" transform="matrix(1,0,0,1,90,229) translate(26.089409722222214 53.79340277777778)"/><use xlink:href="#I" transform="matrix(1,0,0,1,90,229) translate(61.38129340277778 86.05902777777777)"/></g><path d="M-119.5 160h223.12" stroke="#3a414a" fill="none"/><path d="M-119.5 160.47h-.52l.02-.47-.02-.47h.53z" stroke="#3a414a" stroke-width=".05" fill="#3a414a"/><path d="M118.38 160l-14.26 4.63v-9.26z" stroke="#3a414a" fill="#3a414a"/><defs><linearGradient gradientUnits="userSpaceOnUse" id="a" x1="-1620" y1="215.67" x2="-1500" y2="95.67"><stop offset="0%" stop-color="#b0084d"/><stop offset="100%" stop-color="#ff4f8b"/></linearGradient><path d="M52 0l541-1490h220L1361 0h-200l-149-416H398L254 0H52zm404-582h497c-103-290-145-390-251-756-108 377-145 460-246 756" id="J"/><path d="M158 0v-1118h175l1 205c55-151 181-225 313-225 147 0 245 90 285 228 53-141 190-228 352-228 194 0 352 125 352 384V0h-181v-749c0-161-105-225-225-225-151 0-243 103-243 244V0H807v-767c0-124-93-207-219-207-131 0-250 92-250 270V0H158" id="K"/><path d="M471 26C259 26 90-98 90-318c0-256 228-303 435-329 202-27 287-16 287-108 0-139-79-219-234-219-161 0-248 86-283 164l-173-57c86-203 278-265 451-265 150 0 419 46 419 395V0H815v-152h-12C765-73 660 26 471 26zm31-159c199 0 310-134 310-271v-155c-30 35-226 55-295 64-131 17-246 59-246 186 0 116 97 176 231 176" id="L"/><path d="M126 0v-134l627-806v-11H146v-167h839v143L376-178v11h629V0H126" id="M"/><path d="M613 24c-304 0-509-231-509-576 0-350 205-580 509-580 305 0 511 230 511 580 0 345-206 576-511 576zm0-161c226 0 329-195 329-415 0-222-103-419-329-419-223 0-326 196-326 419 0 220 103 415 326 415" id="N"/><path d="M338-670V0H158v-1118h173l1 207c72-158 192-221 342-221 226 0 378 139 378 422V0H872v-695c0-172-96-275-252-275-161 0-282 109-282 300" id="O"/><g id="b"><use transform="matrix(0.010850694444444444,0,0,0.010850694444444444,0,0)" xlink:href="#J"/><use transform="matrix(0.010850694444444444,0,0,0.010850694444444444,15.33203125,0)" xlink:href="#K"/><use transform="matrix(0.010850694444444444,0,0,0.010850694444444444,34.79817708333333,0)" xlink:href="#L"/><use transform="matrix(0.010850694444444444,0,0,0.010850694444444444,47.27647569444444,0)" xlink:href="#M"/><use transform="matrix(0.010850694444444444,0,0,0.010850694444444444,59.22309027777778,0)" xlink:href="#N"/><use transform="matrix(0.010850694444444444,0,0,0.010850694444444444,72.54774305555554,0)" xlink:href="#O"/></g><path d="M180 0v-1490h908v168H370v486h669v168H370v500h727V0H180" id="P"/><path d="M481 0L54-1118h197c107 314 236 620 325 951 87-331 217-637 324-951h197L670 0H481" id="Q"/><path d="M628 24c-324 0-524-230-524-574 0-343 198-582 503-582 237 0 487 146 487 559v75H286c9 234 145 362 343 362 132 0 231-58 273-172l174 48C1024-91 857 24 628 24zM287-650h624c-17-190-120-322-304-322-192 0-309 151-320 322" id="R"/><path d="M598-1118v154H368v674c0 100 37 144 132 144 23 0 62-6 92-12L629-6c-37 13-88 20-134 20-193 0-307-107-307-290v-688H20v-154h168v-266h180v266h230" id="S"/><path d="M180 0v-1490h528c311 0 458 177 458 395 0 191-114 278-244 313v14c139 9 302 137 302 371 0 225-148 397-499 397H180zm190-168h350c232 0 321-102 321-231 0-149-120-277-311-277H370v508zm0-668h328c160 0 286-101 286-255 0-129-87-231-280-231H370v486" id="T"/><path d="M158 0v-1118h174v172h12c41-113 157-188 290-188 26 0 70 2 91 3v181c-11-2-60-10-108-10-161 0-279 109-279 260V0H158" id="U"/><path d="M158 0v-1118h180V0H158zm91-1301c-68 0-125-53-125-119s57-119 125-119c69 0 126 53 126 119s-57 119-126 119" id="V"/><path d="M577 24c-279 0-473-224-473-580 0-354 195-576 474-576 218 0 287 134 324 193h14v-551h180V0H922v-173h-20C865-111 790 24 577 24zm27-161c203 0 314-172 314-421 0-247-108-413-314-413-212 0-317 181-317 413 0 235 108 421 317 421" id="W"/><path d="M611 442c-248 0-391-105-460-228l146-94c47 65 117 165 314 165 178 0 307-82 307-266v-224h-17C863-141 792-18 576-18c-268 0-472-195-472-546 0-346 197-568 476-568 216 0 288 133 326 193h17v-179h175V29c0 289-215 413-487 413zm-5-620c203 0 314-146 314-390 0-237-108-403-314-403-213 0-319 180-319 403 0 230 109 390 319 390" id="X"/><g id="c"><use transform="matrix(0.010850694444444444,0,0,0.010850694444444444,0,0)" xlink:href="#P"/><use transform="matrix(0.010850694444444444,0,0,0.010850694444444444,13.35720486111111,0)" xlink:href="#Q"/><use transform="matrix(0.010850694444444444,0,0,0.010850694444444444,25.41232638888889,0)" xlink:href="#R"/><use transform="matrix(0.010850694444444444,0,0,0.010850694444444444,38.36805555555555,0)" xlink:href="#O"/><use transform="matrix(0.010850694444444444,0,0,0.010850694444444444,51.49739583333333,0)" xlink:href="#S"/><use transform="matrix(0.010850694444444444,0,0,0.010850694444444444,58.76736111111111,0)" xlink:href="#T"/><use transform="matrix(0.010850694444444444,0,0,0.010850694444444444,73.30729166666666,0)" xlink:href="#U"/><use transform="matrix(0.010850694444444444,0,0,0.010850694444444444,82.02039930555556,0)" xlink:href="#V"/><use transform="matrix(0.010850694444444444,0,0,0.010850694444444444,87.40234375,0)" xlink:href="#W"/><use transform="matrix(0.010850694444444444,0,0,0.010850694444444444,101.00911458333333,0)" xlink:href="#X"/><use transform="matrix(0.010850694444444444,0,0,0.010850694444444444,114.63758680555556,0)" xlink:href="#R"/></g><linearGradient gradientUnits="userSpaceOnUse" id="d" x1="-920" y1="13.89" x2="-920" y2="-96.99"><stop offset="0%" stop-color="#198ab3"/><stop offset="9%" stop-color="#1f9dc4"/><stop offset="24%" stop-color="#28b5d9"/><stop offset="40%" stop-color="#2dc6e9"/><stop offset="57%" stop-color="#31d1f2"/><stop offset="78%" stop-color="#32d4f5"/></linearGradient><linearGradient gradientUnits="userSpaceOnUse" id="e" x1="-924.44" y1="-24.85" x2="-924.44" y2="-2.83"><stop offset="0%" stop-color="#c69aeb"/><stop offset="100%" stop-color="#6f4bb2"/></linearGradient><path d="M180 0v-1490h510c348 0 508 209 508 474 0 266-160 477-507 477H370V0H180zm190-706h312c236 0 327-133 327-310 0-176-91-307-329-307H370v617" id="Y"/><path d="M158 418v-1536h174v179h20c37-59 106-193 324-193 279 0 474 222 474 576 0 356-194 580-473 580-213 0-288-135-325-197h-14v591H158zm492-555c209 0 317-186 317-421 0-232-105-413-317-413-206 0-314 166-314 413 0 249 111 421 314 421" id="Z"/><path d="M537 14c-226 0-379-139-379-422v-710h180v695c0 172 97 275 253 275 160 0 281-109 281-300v-670h181V0H879v-209C806-46 684 14 537 14" id="aa"/><path d="M338-1490V0H158v-1490h180" id="ab"/><g id="f"><use transform="matrix(0.010850694444444444,0,0,0.010850694444444444,0,0)" xlink:href="#Y"/><use transform="matrix(0.010850694444444444,0,0,0.010850694444444444,14.073350694444445,0)" xlink:href="#N"/><use transform="matrix(0.010850694444444444,0,0,0.010850694444444444,27.39800347222222,0)" xlink:href="#Z"/><use transform="matrix(0.010850694444444444,0,0,0.010850694444444444,41.00477430555556,0)" xlink:href="#aa"/><use transform="matrix(0.010850694444444444,0,0,0.010850694444444444,54.14496527777778,0)" xlink:href="#ab"/><use transform="matrix(0.010850694444444444,0,0,0.010850694444444444,59.52690972222222,0)" xlink:href="#L"/><use transform="matrix(0.010850694444444444,0,0,0.010850694444444444,72.00520833333333,0)" xlink:href="#S"/><use transform="matrix(0.010850694444444444,0,0,0.010850694444444444,79.2751736111111,0)" xlink:href="#V"/><use transform="matrix(0.010850694444444444,0,0,0.010850694444444444,84.65711805555554,0)" xlink:href="#N"/><use transform="matrix(0.010850694444444444,0,0,0.010850694444444444,97.98177083333331,0)" xlink:href="#O"/></g><path d="M645 0H180v-1490h484c435 0 692 280 692 742 0 466-257 748-711 748zM370-168h263c363 0 539-218 539-580 0-358-176-574-521-574H370v1154" id="ac"/><g id="g"><use transform="matrix(0.010850694444444444,0,0,0.010850694444444444,0,0)" xlink:href="#ac"/><use transform="matrix(0.010850694444444444,0,0,0.010850694444444444,16.03732638888889,0)" xlink:href="#L"/><use transform="matrix(0.010850694444444444,0,0,0.010850694444444444,28.515625,0)" xlink:href="#S"/><use transform="matrix(0.010850694444444444,0,0,0.010850694444444444,35.89409722222222,0)" xlink:href="#L"/></g><path d="M798-719v166H144v-166h654" id="ad"/><use transform="matrix(0.010850694444444444,0,0,0.010850694444444444,0,0)" xlink:href="#ad" id="h"/><path d="M370-1490V0H180v-1490h190" id="ae"/><g id="i"><use transform="matrix(0.010850694444444444,0,0,0.010850694444444444,0,0)" xlink:href="#J"/><use transform="matrix(0.010850694444444444,0,0,0.010850694444444444,15.33203125,0)" xlink:href="#Y"/><use transform="matrix(0.010850694444444444,0,0,0.010850694444444444,29.524739583333332,0)" xlink:href="#ae"/></g><use transform="matrix(0.010850694444444444,0,0,0.010850694444444444,0,0)" xlink:href="#ad" id="j"/><linearGradient gradientUnits="userSpaceOnUse" id="k" x1="-1360" y1="-100" x2="-1240" y2="14"><stop offset="0%" stop-color="#2395ff"/><stop offset="100%" stop-color="#0057bc"/></linearGradient><path d="M180 0v-1490h190v1322h690V0H180" id="af"/><path d="M657 26c-323 0-524-166-541-416h195c15 169 171 246 346 246 202 0 356-106 356-265 5-203-294-238-475-293-239-73-380-191-380-389 0-252 224-419 512-419 294 0 499 171 508 396H992c-17-145-151-228-328-228-193 0-321 102-321 242 0 156 175 211 284 241l149 41c160 44 422 134 422 412 0 244-197 432-541 432" id="ag"/><g id="l"><use transform="matrix(0.010850694444444444,0,0,0.010850694444444444,0,0)" xlink:href="#T"/><use transform="matrix(0.010850694444444444,0,0,0.010850694444444444,14.539930555555555,0)" xlink:href="#af"/><use transform="matrix(0.010850694444444444,0,0,0.010850694444444444,27.10503472222222,0)" xlink:href="#ag"/></g><g id="m"><use transform="matrix(0.010850694444444444,0,0,0.010850694444444444,0,0)" xlink:href="#ac"/><use transform="matrix(0.010850694444444444,0,0,0.010850694444444444,16.03732638888889,0)" xlink:href="#L"/><use transform="matrix(0.010850694444444444,0,0,0.010850694444444444,28.515625,0)" xlink:href="#S"/><use transform="matrix(0.010850694444444444,0,0,0.010850694444444444,35.89409722222222,0)" xlink:href="#L"/></g><path d="M677 24c-213 0-288-135-325-197h-20V0H158v-1490h180v551h14c37-59 106-193 324-193 279 0 474 222 474 576 0 356-194 580-473 580zm-27-161c209 0 317-186 317-421 0-232-105-413-317-413-206 0-314 166-314 413 0 249 111 421 314 421" id="ah"/><path d="M538 24C308 24 148-78 108-271l171-41c32 123 123 178 257 178 156 0 256-77 256-169 0-77-54-128-164-154l-186-44c-203-48-300-148-300-305 0-192 176-326 414-326 230 0 351 112 402 269l-163 42c-31-80-94-158-238-158-133 0-233 69-233 162 0 83 57 129 188 160l169 40c203 48 298 149 298 302 0 196-179 339-441 339" id="ai"/><path d="M635 20c-292 0-500-160-510-396h192c11 142 145 229 315 229 187 0 323-105 323-260 0-161-125-274-346-274H488v-165h121c174 0 294-100 294-254 0-148-104-245-266-245-152 0-291 85-297 230H157c8-234 222-395 484-395 278 0 448 188 448 400 0 168-95 291-247 336v12c190 31 301 169 301 357 0 244-216 425-508 425" id="aj"/><g id="n"><use transform="matrix(0.010850694444444444,0,0,0.010850694444444444,0,0)" xlink:href="#ah"/><use transform="matrix(0.010850694444444444,0,0,0.010850694444444444,13.606770833333332,0)" xlink:href="#ab"/><use transform="matrix(0.010850694444444444,0,0,0.010850694444444444,18.98871527777778,0)" xlink:href="#ai"/><use transform="matrix(0.010850694444444444,0,0,0.010850694444444444,30.71831597222222,0)" xlink:href="#ad"/><use transform="matrix(0.010850694444444444,0,0,0.010850694444444444,40.939670138888886,0)" xlink:href="#W"/><use transform="matrix(0.010850694444444444,0,0,0.010850694444444444,54.54644097222221,0)" xlink:href="#L"/><use transform="matrix(0.010850694444444444,0,0,0.010850694444444444,67.02473958333333,0)" xlink:href="#S"/><use transform="matrix(0.010850694444444444,0,0,0.010850694444444444,74.40321180555554,0)" xlink:href="#L"/><use transform="matrix(0.010850694444444444,0,0,0.010850694444444444,86.88151041666666,0)" xlink:href="#ad"/><use transform="matrix(0.010850694444444444,0,0,0.010850694444444444,97.10286458333333,0)" xlink:href="#ag"/><use transform="matrix(0.010850694444444444,0,0,0.010850694444444444,111.36067708333333,0)" xlink:href="#aj"/></g><g id="o"><use transform="matrix(0.010850694444444444,0,0,0.010850694444444444,0,0)" xlink:href="#Z"/><use transform="matrix(0.010850694444444444,0,0,0.010850694444444444,13.606770833333332,0)" xlink:href="#N"/><use transform="matrix(0.010850694444444444,0,0,0.010850694444444444,26.931423611111104,0)" xlink:href="#Z"/><use transform="matrix(0.010850694444444444,0,0,0.010850694444444444,40.53819444444444,0)" xlink:href="#aa"/><use transform="matrix(0.010850694444444444,0,0,0.010850694444444444,53.678385416666664,0)" xlink:href="#ab"/><use transform="matrix(0.010850694444444444,0,0,0.010850694444444444,59.06032986111111,0)" xlink:href="#L"/><use transform="matrix(0.010850694444444444,0,0,0.010850694444444444,71.53862847222221,0)" xlink:href="#S"/><use transform="matrix(0.010850694444444444,0,0,0.010850694444444444,78.80859374999999,0)" xlink:href="#V"/><use transform="matrix(0.010850694444444444,0,0,0.010850694444444444,84.19053819444443,0)" xlink:href="#N"/><use transform="matrix(0.010850694444444444,0,0,0.010850694444444444,97.5151909722222,0)" xlink:href="#O"/><use transform="matrix(0.010850694444444444,0,0,0.010850694444444444,110.64453124999997,0)" xlink:href="#ad"/><use transform="matrix(0.010850694444444444,0,0,0.010850694444444444,120.86588541666664,0)" xlink:href="#W"/><use transform="matrix(0.010850694444444444,0,0,0.010850694444444444,134.47265624999997,0)" xlink:href="#L"/><use transform="matrix(0.010850694444444444,0,0,0.010850694444444444,146.9509548611111,0)" xlink:href="#S"/><use transform="matrix(0.010850694444444444,0,0,0.010850694444444444,154.32942708333331,0)" xlink:href="#L"/><use transform="matrix(0.010850694444444444,0,0,0.010850694444444444,166.80772569444443,0)" xlink:href="#ad"/><use transform="matrix(0.010850694444444444,0,0,0.010850694444444444,177.0290798611111,0)" xlink:href="#ag"/><use transform="matrix(0.010850694444444444,0,0,0.010850694444444444,191.28689236111111,0)" xlink:href="#aj"/></g><g id="p"><use transform="matrix(0.010850694444444444,0,0,0.010850694444444444,0,0)" xlink:href="#af"/><use transform="matrix(0.010850694444444444,0,0,0.010850694444444444,12.565104166666666,0)" xlink:href="#L"/><use transform="matrix(0.010850694444444444,0,0,0.010850694444444444,25.04340277777778,0)" xlink:href="#K"/><use transform="matrix(0.010850694444444444,0,0,0.010850694444444444,44.50954861111111,0)" xlink:href="#ah"/><use transform="matrix(0.010850694444444444,0,0,0.010850694444444444,58.11631944444444,0)" xlink:href="#W"/><use transform="matrix(0.010850694444444444,0,0,0.010850694444444444,71.72309027777777,0)" xlink:href="#L"/></g><path d="M180 0v-1490h190v644h782v-644h190V0h-190v-678H370V0H180" id="ak"/><g id="q"><use transform="matrix(0.010850694444444444,0,0,0.010850694444444444,0,0)" xlink:href="#ak"/><use transform="matrix(0.010850694444444444,0,0,0.010850694444444444,16.514756944444443,0)" xlink:href="#L"/><use transform="matrix(0.010850694444444444,0,0,0.010850694444444444,28.993055555555554,0)" xlink:href="#O"/><use transform="matrix(0.010850694444444444,0,0,0.010850694444444444,42.12239583333333,0)" xlink:href="#W"/><use transform="matrix(0.010850694444444444,0,0,0.010850694444444444,55.72916666666666,0)" xlink:href="#ab"/><use transform="matrix(0.010850694444444444,0,0,0.010850694444444444,61.1111111111111,0)" xlink:href="#R"/><use transform="matrix(0.010850694444444444,0,0,0.010850694444444444,74.06684027777777,0)" xlink:href="#U"/></g><g id="r"><use transform="matrix(0.010850694444444444,0,0,0.010850694444444444,0,0)" xlink:href="#ae"/><use transform="matrix(0.010850694444444444,0,0,0.010850694444444444,5.967881944444445,0)" xlink:href="#O"/><use transform="matrix(0.010850694444444444,0,0,0.010850694444444444,19.09722222222222,0)" xlink:href="#X"/><use transform="matrix(0.010850694444444444,0,0,0.010850694444444444,32.72569444444444,0)" xlink:href="#R"/><use transform="matrix(0.010850694444444444,0,0,0.010850694444444444,45.68142361111111,0)" xlink:href="#ai"/><use transform="matrix(0.010850694444444444,0,0,0.010850694444444444,57.41102430555555,0)" xlink:href="#S"/><use transform="matrix(0.010850694444444444,0,0,0.010850694444444444,64.68098958333333,0)" xlink:href="#V"/><use transform="matrix(0.010850694444444444,0,0,0.010850694444444444,70.06293402777777,0)" xlink:href="#N"/><use transform="matrix(0.010850694444444444,0,0,0.010850694444444444,83.38758680555554,0)" xlink:href="#O"/></g><g id="s"><use transform="matrix(0.010850694444444444,0,0,0.010850694444444444,0,0)" xlink:href="#af"/><use transform="matrix(0.010850694444444444,0,0,0.010850694444444444,12.565104166666666,0)" xlink:href="#L"/><use transform="matrix(0.010850694444444444,0,0,0.010850694444444444,25.04340277777778,0)" xlink:href="#K"/><use transform="matrix(0.010850694444444444,0,0,0.010850694444444444,44.50954861111111,0)" xlink:href="#ah"/><use transform="matrix(0.010850694444444444,0,0,0.010850694444444444,58.11631944444444,0)" xlink:href="#W"/><use transform="matrix(0.010850694444444444,0,0,0.010850694444444444,71.72309027777777,0)" xlink:href="#L"/></g><path d="M180 0v-1490h901v168H370v510h643v168H370V0H180" id="al"/><path d="M613 24c-304 0-509-231-509-576 0-350 205-580 509-580 216 0 392 114 453 309l-173 49c-33-115-133-197-280-197-223 0-326 196-326 419 0 220 103 415 326 415 150 0 252-85 285-206l172 49C1010-95 832 24 613 24" id="am"/><g id="t"><use transform="matrix(0.010850694444444444,0,0,0.010850694444444444,0,0)" xlink:href="#al"/><use transform="matrix(0.010850694444444444,0,0,0.010850694444444444,12.369791666666666,0)" xlink:href="#aa"/><use transform="matrix(0.010850694444444444,0,0,0.010850694444444444,25.50998263888889,0)" xlink:href="#O"/><use transform="matrix(0.010850694444444444,0,0,0.010850694444444444,38.639322916666664,0)" xlink:href="#am"/><use transform="matrix(0.010850694444444444,0,0,0.010850694444444444,51.334635416666664,0)" xlink:href="#S"/><use transform="matrix(0.010850694444444444,0,0,0.010850694444444444,58.60460069444444,0)" xlink:href="#V"/><use transform="matrix(0.010850694444444444,0,0,0.010850694444444444,63.986545138888886,0)" xlink:href="#N"/><use transform="matrix(0.010850694444444444,0,0,0.010850694444444444,77.31119791666666,0)" xlink:href="#O"/></g><path d="M140 405l46-156c120 36 205 19 263-150l32-93L54-1118h197c107 313 237 620 324 950 87-331 219-637 326-950h196L606 167c-68 178-176 259-334 259-64 0-113-12-132-21" id="an"/><g id="u"><use transform="matrix(0.010850694444444444,0,0,0.010850694444444444,0,0)" xlink:href="#ac"/><use transform="matrix(0.010850694444444444,0,0,0.010850694444444444,16.03732638888889,0)" xlink:href="#L"/><use transform="matrix(0.010850694444444444,0,0,0.010850694444444444,28.515625,0)" xlink:href="#V"/><use transform="matrix(0.010850694444444444,0,0,0.010850694444444444,33.89756944444444,0)" xlink:href="#ab"/><use transform="matrix(0.010850694444444444,0,0,0.010850694444444444,39.38802083333333,0)" xlink:href="#an"/></g><path d="M98-1322v-168h1126v168H757V0H567v-1322H98" id="ao"/><g id="v"><use transform="matrix(0.010850694444444444,0,0,0.010850694444444444,0,0)" xlink:href="#ao"/><use transform="matrix(0.010850694444444444,0,0,0.010850694444444444,13.0859375,0)" xlink:href="#U"/><use transform="matrix(0.010850694444444444,0,0,0.010850694444444444,21.799045138888886,0)" xlink:href="#V"/><use transform="matrix(0.010850694444444444,0,0,0.010850694444444444,27.18098958333333,0)" xlink:href="#X"/><use transform="matrix(0.010850694444444444,0,0,0.010850694444444444,40.80946180555555,0)" xlink:href="#X"/><use transform="matrix(0.010850694444444444,0,0,0.010850694444444444,54.43793402777778,0)" xlink:href="#R"/><use transform="matrix(0.010850694444444444,0,0,0.010850694444444444,67.39366319444444,0)" xlink:href="#U"/></g><g id="w"><use transform="matrix(0.010850694444444444,0,0,0.010850694444444444,0,0)" xlink:href="#J"/><use transform="matrix(0.010850694444444444,0,0,0.010850694444444444,15.33203125,0)" xlink:href="#K"/><use transform="matrix(0.010850694444444444,0,0,0.010850694444444444,34.79817708333333,0)" xlink:href="#L"/><use transform="matrix(0.010850694444444444,0,0,0.010850694444444444,47.27647569444444,0)" xlink:href="#M"/><use transform="matrix(0.010850694444444444,0,0,0.010850694444444444,59.22309027777778,0)" xlink:href="#N"/><use transform="matrix(0.010850694444444444,0,0,0.010850694444444444,72.54774305555554,0)" xlink:href="#O"/></g><g id="x"><use transform="matrix(0.010850694444444444,0,0,0.010850694444444444,0,0)" xlink:href="#ag"/><use transform="matrix(0.010850694444444444,0,0,0.010850694444444444,14.2578125,0)" xlink:href="#V"/><use transform="matrix(0.010850694444444444,0,0,0.010850694444444444,19.639756944444443,0)" xlink:href="#K"/><use transform="matrix(0.010850694444444444,0,0,0.010850694444444444,39.10590277777777,0)" xlink:href="#Z"/><use transform="matrix(0.010850694444444444,0,0,0.010850694444444444,52.7126736111111,0)" xlink:href="#ab"/><use transform="matrix(0.010850694444444444,0,0,0.010850694444444444,58.09461805555554,0)" xlink:href="#R"/></g><path d="M784 20c-382 0-662-292-662-764 0-473 280-766 662-766s660 293 660 766c0 282-99 499-260 629l192 255h-198L1049-33C969 2 880 20 784 20zm-62-486h198l156 205c112-98 183-261 183-483 0-383-209-590-475-590-268 0-477 208-477 590 0 380 209 588 477 588 54 0 106-9 154-25" id="ap"/><g id="y"><use transform="matrix(0.010850694444444444,0,0,0.010850694444444444,0,0)" xlink:href="#ap"/><use transform="matrix(0.010850694444444444,0,0,0.010850694444444444,16.9921875,0)" xlink:href="#aa"/><use transform="matrix(0.010850694444444444,0,0,0.010850694444444444,30.13237847222222,0)" xlink:href="#R"/><use transform="matrix(0.010850694444444444,0,0,0.010850694444444444,43.088107638888886,0)" xlink:href="#aa"/><use transform="matrix(0.010850694444444444,0,0,0.010850694444444444,56.22829861111111,0)" xlink:href="#R"/></g><g id="z"><use transform="matrix(0.010850694444444444,0,0,0.010850694444444444,0,0)" xlink:href="#ag"/><use transform="matrix(0.010850694444444444,0,0,0.010850694444444444,14.2578125,0)" xlink:href="#R"/><use transform="matrix(0.010850694444444444,0,0,0.010850694444444444,27.213541666666664,0)" xlink:href="#U"/><use transform="matrix(0.010850694444444444,0,0,0.010850694444444444,35.92664930555555,0)" xlink:href="#Q"/><use transform="matrix(0.010850694444444444,0,0,0.010850694444444444,48.41579861111111,0)" xlink:href="#V"/><use transform="matrix(0.010850694444444444,0,0,0.010850694444444444,53.79774305555556,0)" xlink:href="#am"/><use transform="matrix(0.010850694444444444,0,0,0.010850694444444444,66.49305555555554,0)" xlink:href="#R"/></g><path d="M218-607c0-325 108-727 258-974h175c-155 315-250 682-250 974 0 265 78 531 250 886H476C306-10 218-315 218-607" id="aq"/><g id="A"><use transform="matrix(0.010850694444444444,0,0,0.010850694444444444,0,0)" xlink:href="#aq"/><use transform="matrix(0.010850694444444444,0,0,0.010850694444444444,8.10546875,0)" xlink:href="#J"/><use transform="matrix(0.010850694444444444,0,0,0.010850694444444444,23.4375,0)" xlink:href="#K"/><use transform="matrix(0.010850694444444444,0,0,0.010850694444444444,42.90364583333333,0)" xlink:href="#L"/><use transform="matrix(0.010850694444444444,0,0,0.010850694444444444,55.38194444444444,0)" xlink:href="#M"/><use transform="matrix(0.010850694444444444,0,0,0.010850694444444444,67.32855902777777,0)" xlink:href="#N"/><use transform="matrix(0.010850694444444444,0,0,0.010850694444444444,80.65321180555554,0)" xlink:href="#O"/></g><path d="M96 279C273-86 346-350 346-607c0-292-95-659-250-974h175c150 246 258 650 258 974 0 297-91 602-258 886H96" id="ar"/><g id="B"><use transform="matrix(0.010850694444444444,0,0,0.010850694444444444,0,0)" xlink:href="#ag"/><use transform="matrix(0.010850694444444444,0,0,0.010850694444444444,14.2578125,0)" xlink:href="#ap"/><use transform="matrix(0.010850694444444444,0,0,0.010850694444444444,31.25,0)" xlink:href="#ag"/><use transform="matrix(0.010850694444444444,0,0,0.010850694444444444,45.5078125,0)" xlink:href="#ar"/></g><g id="C"><use transform="matrix(0.010850694444444444,0,0,0.010850694444444444,0,0)" xlink:href="#ag"/><use transform="matrix(0.010850694444444444,0,0,0.010850694444444444,14.2578125,0)" xlink:href="#ap"/><use transform="matrix(0.010850694444444444,0,0,0.010850694444444444,31.25,0)" xlink:href="#ag"/></g><g id="D"><use transform="matrix(0.010850694444444444,0,0,0.010850694444444444,0,0)" xlink:href="#ao"/><use transform="matrix(0.010850694444444444,0,0,0.010850694444444444,13.0859375,0)" xlink:href="#U"/><use transform="matrix(0.010850694444444444,0,0,0.010850694444444444,21.799045138888886,0)" xlink:href="#V"/><use transform="matrix(0.010850694444444444,0,0,0.010850694444444444,27.18098958333333,0)" xlink:href="#X"/><use transform="matrix(0.010850694444444444,0,0,0.010850694444444444,40.80946180555555,0)" xlink:href="#X"/><use transform="matrix(0.010850694444444444,0,0,0.010850694444444444,54.43793402777778,0)" xlink:href="#R"/><use transform="matrix(0.010850694444444444,0,0,0.010850694444444444,67.39366319444444,0)" xlink:href="#U"/></g><g id="E"><use transform="matrix(0.010850694444444444,0,0,0.010850694444444444,0,0)" xlink:href="#N"/><use transform="matrix(0.010850694444444444,0,0,0.010850694444444444,13.324652777777777,0)" xlink:href="#O"/></g><g id="F"><use transform="matrix(0.010850694444444444,0,0,0.010850694444444444,0,0)" xlink:href="#al"/><use transform="matrix(0.010850694444444444,0,0,0.010850694444444444,13.118489583333332,0)" xlink:href="#V"/><use transform="matrix(0.010850694444444444,0,0,0.010850694444444444,18.50043402777778,0)" xlink:href="#ab"/><use transform="matrix(0.010850694444444444,0,0,0.010850694444444444,23.88237847222222,0)" xlink:href="#R"/></g><g id="G"><use transform="matrix(0.010850694444444444,0,0,0.010850694444444444,0,0)" xlink:href="#Y"/><use transform="matrix(0.010850694444444444,0,0,0.010850694444444444,14.192708333333332,0)" xlink:href="#U"/><use transform="matrix(0.010850694444444444,0,0,0.010850694444444444,22.189670138888886,0)" xlink:href="#R"/><use transform="matrix(0.010850694444444444,0,0,0.010850694444444444,35.14539930555555,0)" xlink:href="#ai"/><use transform="matrix(0.010850694444444444,0,0,0.010850694444444444,46.874999999999986,0)" xlink:href="#R"/><use transform="matrix(0.010850694444444444,0,0,0.010850694444444444,59.83072916666666,0)" xlink:href="#O"/><use transform="matrix(0.010850694444444444,0,0,0.010850694444444444,72.96006944444443,0)" xlink:href="#am"/><use transform="matrix(0.010850694444444444,0,0,0.010850694444444444,85.65538194444443,0)" xlink:href="#R"/></g><path d="M783 20c-382 0-661-292-661-764 0-473 279-766 661-766 302 0 548 182 601 489h-190c-42-204-217-313-411-313-268 0-476 208-476 590 0 381 209 588 476 588 195 0 369-110 411-313h190c-52 303-296 489-601 489" id="as"/><path d="M458 0L52-1490h194c108 439 233 855 324 1313 92-459 221-873 331-1313h216c110 438 234 854 330 1307 92-455 216-869 323-1307h196L1558 0h-221l-256-944c-26-95-50-200-73-331-22 122-44 223-73 331L680 0H458" id="at"/><path d="M338-670V0H158v-1490h180v566c73-149 190-208 336-208 226 0 379 139 379 422V0H872v-695c0-172-96-275-252-275-161 0-282 109-282 300" id="au"/><g id="H"><use transform="matrix(0.010850694444444444,0,0,0.010850694444444444,0,0)" xlink:href="#as"/><use transform="matrix(0.010850694444444444,0,0,0.010850694444444444,16.23263888888889,0)" xlink:href="#ab"/><use transform="matrix(0.010850694444444444,0,0,0.010850694444444444,21.614583333333336,0)" xlink:href="#N"/><use transform="matrix(0.010850694444444444,0,0,0.010850694444444444,34.939236111111114,0)" xlink:href="#aa"/><use transform="matrix(0.010850694444444444,0,0,0.010850694444444444,48.07942708333333,0)" xlink:href="#W"/><use transform="matrix(0.010850694444444444,0,0,0.010850694444444444,61.68619791666667,0)" xlink:href="#at"/><use transform="matrix(0.010850694444444444,0,0,0.010850694444444444,82.45442708333334,0)" xlink:href="#L"/><use transform="matrix(0.010850694444444444,0,0,0.010850694444444444,94.93272569444446,0)" xlink:href="#S"/><use transform="matrix(0.010850694444444444,0,0,0.010850694444444444,101.98567708333334,0)" xlink:href="#am"/><use transform="matrix(0.010850694444444444,0,0,0.010850694444444444,114.68098958333334,0)" xlink:href="#au"/></g><path d="M784 20c-382 0-662-292-662-764 0-473 280-766 662-766s660 293 660 766c0 472-278 764-660 764zm0-176c266 0 475-207 475-588 0-383-209-590-475-590-268 0-477 208-477 590 0 380 209 588 477 588" id="av"/><path d="M789 20c-398 0-667-293-667-764 0-473 273-766 655-766 315 0 558 198 612 487h-196c-61-191-204-311-415-311-262 0-471 207-471 590 0 380 208 588 482 588 249 0 420-165 425-427H828v-166h572v163c0 370-256 606-611 606" id="aw"/><g id="I"><use transform="matrix(0.010850694444444444,0,0,0.010850694444444444,0,0)" xlink:href="#af"/><use transform="matrix(0.010850694444444444,0,0,0.010850694444444444,11.93576388888889,0)" xlink:href="#av"/><use transform="matrix(0.010850694444444444,0,0,0.010850694444444444,28.92795138888889,0)" xlink:href="#aw"/><use transform="matrix(0.010850694444444444,0,0,0.010850694444444444,45.5078125,0)" xlink:href="#ai"/></g></defs></g></svg>