<svg xmlns="http://www.w3.org/2000/svg" xmlns:xlink="http://www.w3.org/1999/xlink" xmlns:lucid="lucid" width="1813.25" height="658.57"><g transform="translate(983.8667534722222 100.57140131615209)" lucid:page-tab-id="0_0"><path d="M-1000-500h2000v1500h-2000z" fill="#fff"/><path d="M420 114.53a6 6 0 0 1 6-6h186.65a6 6 0 0 1 6 6v210.94a6 6 0 0 1-6 6H426a6 6 0 0 1-6-6zM-280 123.07a6 6 0 0 1 6-6H34a6 6 0 0 1 6 6v208a6 6 0 0 1-6 6h-308a6 6 0 0 1-6-6z" stroke="#000" stroke-width="2" fill="#fff"/><path d="M-960 6.07h120v111h-120z" fill-opacity="0"/><path d="M-863.4 39.48c-.6-18.87-16.2-33.86-34.92-33.4-15.36-.12-28.32 8.87-33.6 23.3-16.2 2.22-27.96 15.76-28.08 32.2.6 18.08 15.72 32.3 33.84 31.84.96.12 1.92.12 2.88 0h8.52c-.48-1.33-.72-2.55-.72-4 0-1.88.36-3.54 1.32-5.1h-12c-13.08.45-24.12-9.65-24.84-22.75.12-12 8.76-21.76 20.52-23.2l5.4-.9 1.68-5.2c3.96-10.66 13.68-17.32 25.08-17.2 13.8-.34 25.32 10.53 25.92 24.52v7.76l7.68 1c9 1.22 15.72 8.55 15.96 17.65-.36 10.1-8.52 18-18.48 18.1h-8.64c-2.64-13.32-13.92-22.64-27.36-22.53-.36-.1-.72-.1-1.08 0-2.52.22-4.32 2.55-3.96 5 .24 2.55 2.52 4.2 5.04 4 10.32.54 18.12 9.54 17.52 19.86-.6 9.54-8.04 16.98-17.52 17.65-.36-.1-.72-.1-1.08 0-2.52.22-4.32 2.55-3.96 5 .24 2.55 2.52 4.2 5.04 4 13.8-.12 25.32-10 27.36-23.77h7.32c.48.13.96.13 1.44 0C-852.24 93.1-840.24 81-840 66c-.24-13.53-10.08-24.63-23.4-26.52z" fill="url(#a)"/><path d="M-915.48 89.26a11.04 11.04 0 0 1 11.04-11.04 11.04 11.04 0 0 1 11.04 11.04 11.04 11.04 0 0 1-11.04 11.05 11.04 11.04 0 0 1-11.04-11.03z" fill="url(#b)"/><use xlink:href="#c" transform="matrix(1,0,0,1,-990,126.06770833333331) translate(7.1332465277778 21.52777777777778)"/><use xlink:href="#d" transform="matrix(1,0,0,1,-990,126.06770833333331) translate(124.49435763888889 21.52777777777778)"/><use xlink:href="#e" transform="matrix(1,0,0,1,-990,126.06770833333331) translate(55.78233506944444 53.79340277777778)"/><use xlink:href="#f" transform="matrix(1,0,0,1,-990,126.06770833333331) translate(72.25368923611111 53.79340277777778)"/><use xlink:href="#g" transform="matrix(1,0,0,1,-990,126.06770833333331) translate(113.99631076388889 53.79340277777778)"/><path d="M-960 320h120v114h-120z" fill-opacity="0"/><path d="M-858 320c2.28 0 4.68.46 6.84 1.37 2.28.8 4.2 2.16 5.88 3.87 3.48 3.54 5.28 7.76 5.28 12.54v12.1c0 1.8-.6 3.3-1.8 4.55-1.2 1.02-2.64 1.48-4.2 1.48s-3.12-.45-4.32-1.47c-.48-.57-.96-1.37-1.32-2.05-.24-.8-.36-1.7-.36-2.5v-12.1c0-.68-.12-1.48-.48-2.16-.24-.7-.72-1.37-1.32-1.83-.48-.58-1.2-1.03-1.92-1.26-.72-.34-1.56-.46-2.28-.46h-84c-.72 0-1.56.12-2.28.46-.72.23-1.44.68-1.92 1.25-.6.45-1.08 1.13-1.32 1.82-.36.68-.48 1.48-.48 2.16v6.05h30.12c1.68 0 3.12.57 4.2 1.82.6.57 1.08 1.14 1.32 1.94.36.67.48 1.47.48 2.27 0 1.82-.6 3.3-1.8 4.56-1.2 1.02-2.64 1.48-4.2 1.48H-948v54.27c0 1.6.6 3.08 1.8 4.22.48.56 1.2 1.02 1.92 1.36.72.23 1.56.46 2.28.46h15.12c1.68 0 3 .57 4.2 1.7 1.2 1.03 1.8 2.4 1.8 4.22 0 .8-.12 1.6-.48 2.4-.24.68-.72 1.37-1.32 1.94-1.2 1.02-2.64 1.48-4.2 1.48H-942c-4.8 0-9.12-1.7-12.72-5.25-1.68-1.58-3-3.52-3.96-5.7-.84-2.15-1.32-4.55-1.32-6.83v-72.4c0-4.77 1.8-9 5.28-12.53 3.6-3.53 7.92-5.24 12.72-5.24h84zm-23.64 29.87c5.88 0 11.28 1.14 16.32 3.53 5.04 2.17 9.36 5.13 13.08 9 3.84 3.88 6.84 8.33 9 13.35 2.16 5 3.24 10.48 3.24 16.3 0 5.58-1.08 11.17-3.24 16.3-2.16 5.02-5.16 9.58-9 13.34-3.96 3.86-8.52 6.94-13.56 9-5.16 2.27-10.68 3.3-16.32 3.3-5.52 0-11.04-1.14-16.2-3.3-5.04-2.06-9.48-5.14-13.32-9-3.84-3.77-6.84-8.33-9-13.35-2.16-5.13-3.36-10.72-3.24-16.3 0-5.82 1.08-11.3 3.24-16.3 2.04-5.02 4.92-9.47 8.76-13.34 3.84-3.75 8.28-6.83 13.2-9 5.16-2.28 10.68-3.53 16.32-3.53h.72zm23.64 24.17c-3.24-4.1-6.84-6.96-11.04-8.9.84 1.37 1.44 2.85 2.04 4.34.6 1.36 1.32 2.85 1.92 4.56h7.08zm-24.12-7.64c-1.08 2.05-2.4 4.56-3.72 7.64h7.8c-1.32-3.42-2.76-5.93-4.08-7.64zm-29.76 25.65v3.08l.48 2.96h9.72c-.12-1.04-.24-2.06-.24-2.97V389.08c0-1.02.12-2.05.24-3.07h-9.72l-.48 3.08v2.97zm6 18.12c3.12 4 6.84 6.96 11.04 8.78-.84-1.37-1.56-2.62-2.28-4-.48-1.7-1.08-3.18-1.8-4.78h-6.96zm6.96-36.13c.72-1.7 1.32-3.2 1.8-4.56.6-1.5 1.44-2.97 2.28-4.34-4.2 1.94-7.92 4.8-11.04 8.9h6.96zm16.8 43.66c.84-1.14 1.56-2.4 2.04-3.54l2.04-4h-7.8l3.72 7.54zm7.56-19.6c.36-1.04.48-2.06.48-2.97V389.08c0-1.02-.12-2.05-.48-3.07h-14.76c-.36 1.03-.48 2.06-.48 3.08v6.05c0 .9.12 1.93.48 2.96h14.76zm5.52 20.85c4.2-1.82 7.8-4.8 11.04-8.78h-7.08c-.6 1.6-1.32 3.2-1.92 4.8-.6 1.36-1.2 2.73-2.04 3.98zm16.56-20.86c.12-1.04.24-2.06.24-2.97.24-2.06.24-4.1 0-6.05 0-1.02-.12-2.05-.24-3.07h-9.84c.24 1.03.24 2.06.24 3.08v6.05c0 .9 0 1.93-.24 2.96h9.84z" fill="url(#h)"/><use xlink:href="#i" transform="matrix(1,0,0,1,-990,443) translate(42.00737847222223 21.52777777777778)"/><use xlink:href="#j" transform="matrix(1,0,0,1,-990,443) translate(89.62022569444446 21.52777777777778)"/><path d="M-200 400h120v120h-120V400z" stroke="#fff" stroke-opacity="0" stroke-width="2" fill="#3f8624"/><path d="M-142.3 420c-17.08 0-36.1 5.2-36.1 12.72v.16l.07.72v.24l7.7 57.12c.22 6.56 17.45 9.04 28.26 9.04 3.97 0 7.28-.24 11.17-.72l-.43-3.2c-3.67.48-6.85.72-10.6.72-15.35 0-25.15-3.92-25.15-6 .07-.08.07-.08 0-.16l-7-52.56c.66.4 1.3.72 2.03 1.12.36.16.65.32 1 .4.37.16.73.32 1.1.4.35.16 1.2.48 1.86.72.73.16 1.24.32 1.9.56l1.86.48.86.16c3.97.88 7.28 1.44 11.32 1.76l2.6.24c2.52.16 5.1.24 7.64.24 2.52 0 5.1-.08 7.64-.24.86 0 1.8-.16 2.66-.24 3.17-.32 6.2-.72 9.08-1.28l1.37-.32.94-.16.65-.16c1-.24 1.95-.48 2.88-.8l.94-.24c.65-.24 1.3-.48 1.87-.72.37-.08.73-.24 1.1-.4.35-.08.64-.24.93-.4.8-.4 1.37-.72 2.1-1.12l-3.47 25.04 1.8.56 1.37.32.44-3.52c-.58-.4-1.16-.72-1.8-1.04l-.3-.16 1.66-2.8.15.16.8.4 3.1-23.2v-.88-.24c.13-7.52-18.9-12.72-35.98-12.72zm31.14 14.96c-1.08.72-2.02 1.2-3.17 1.6-.36.16-.65.24-.94.4-.57.16-1.08.4-1.73.56l-1 .32c-1.02.32-2.1.64-3.18.88l-1.22.24-2.16.48c-1.1.16-2.3.32-3.54.56l-2.02.24-2.66.24c-.94.08-1.5.16-2.24.16-2.3.16-4.68.24-7.2.24-2.45 0-4.76-.08-7.14-.24-.72 0-1.5-.08-2.23-.16-.72-.08-1.8-.16-2.66-.24-.94-.16-1.37-.16-2.02-.24-2.52-.4-4.83-.8-6.92-1.28l-2.23-.56c-.72-.24-1.44-.4-2.1-.64l-.93-.32c-.58-.16-1.15-.4-1.66-.64-1.37-.48-2.45-1.12-3.6-1.92-.3-.24-.5-.48-.8-.8-.07-.08-.14-.16-.2-.32-.08-.08-.16-.16-.23-.32-.07-.08-.07-.16-.07-.24v-.32c.22-3.36 13.7-9.44 32.87-9.44 19.17 0 32.72 6.08 32.94 9.44v.32c-.08.08-.08.16-.16.24 0 .16-.07.24-.14.32-.07.16-.14.24-.3.32-.42.48-.78.8-1.36 1.12z" stroke="#fff" stroke-opacity="0" stroke-width="2" fill="#fff"/><path d="M-175.14 433c.02.12.05.2.1.3l-.1-.23zM-173.8 434.7c1.17.84 2.24 1.42 3.58 1.94-1.34-.5-2.4-1.1-3.57-1.94zM-121.28 438.8c1.17-.27 2.27-.58 3.2-.88-.93.32-2.03.6-3.2.88zM-111.15 434.96c-1.06.68-2.02 1.16-3.2 1.6 1.18-.44 2.14-.92 3.2-1.6zM-111.73 463.66l1.33.34-.43 3.2-.13.9-3.2-.4.18-1.36.43-3.2zM-110.2 456.62l.74.42-.46 3.42c-.54-.33-1.14-.67-1.8-1.03l-.28-.14 1.6-2.8zM-109.46 433c-.02.1-.05.17-.1.25.05-.08.08-.15.1-.24z" stroke="#fff" stroke-opacity="0" stroke-width="2" fill="#fff"/><path d="M-102.39 466.6h.02c-1 1.02-2.26 1.47-3.64 1.3v.02c-1.7-.05-3.17-.25-4.83-.7l-1.74-.48-1.33-.4c-9.42-3.14-17.2-6.32-26.15-10.67l-1.1-.5 1.38-2.9 1.1.54c8.63 4.16 16.14 7.23 25.2 10.33l1.78.54 1.3.33c3.92.97 5.2.7 5.54.56-.16-.4-.95-1.6-5.06-4.1-.55-.35-1.15-.68-1.82-1.06l-.24-.1 1.6-2.8.22.13.72.4c4.98 2.83 7.4 5.02 7.8 7.06.14.93-.1 1.8-.73 2.5z" stroke="#fff" stroke-opacity="0" stroke-width="2" fill="#fff"/><path d="M-142.3 456.45c-1.97 0-3.6-1.62-3.6-3.6 0-2 1.63-3.6 3.6-3.6 2 0 3.58 1.58 3.6 3.55.04 2-1.55 3.62-3.54 3.65h-.05zm0-4c-.2 0-.4.18-.4.4 0 .43.82.43.82 0 0-.23-.18-.4-.4-.4zM-107.73 486.78h-6.34l3.1 5.43 5.38 1.5-.85 3.07-4.36-1.2-1.2 4.43-3.08-.83 1.4-5.3-3.17-5.5-3.1 5.4 1.36 5.4-3.1.8-1.13-4.36-4.42 1.17-.82-3.08 5.27-1.43 3.18-5.5h-6.25l-4 3.9-2.2-2.3 3.24-3.13-3.27-3.3 2.26-2.24 3.87 3.88h6.35l-3.1-5.42-5.38-1.48.85-3.08 4.36 1.2 1.2-4.43 3.08.83-1.4 5.3 3.17 5.48 3.1-5.4-1.36-5.38 3.1-.8 1.13 4.35 4.42-1.15.83 3.08-5.28 1.42-3.17 5.48h6.25l4-3.88 2.2 2.28-3.24 3.14 3.26 3.3-2.26 2.25-3.87-3.9z" stroke="#fff" stroke-opacity="0" stroke-width="2" fill="#fff"/><use xlink:href="#k" transform="matrix(1,0,0,1,-230,529) translate(1.4474826388888857 21.52777777777778)"/><use xlink:href="#l" transform="matrix(1,0,0,1,-230,529) translate(62.25477430555556 21.52777777777778)"/><use xlink:href="#m" transform="matrix(1,0,0,1,-230,529) translate(96.48871527777777 21.52777777777778)"/><path d="M-414.4 157.07v9.52h-5.6v3.6h5.6v6h-5.6v3.5h5.6v6.1h-5.6v3.5h5.6v6h-5.6v3.53h5.6v6h-5.6v3.52h5.6v6.08h-5.6v3.52h5.6v6h-5.6v3.6h5.6v9.52h64.4v-80zm60.9 76.48h-57.4v-6h5.53v-3.6h-5.53v-6h5.53v-3.52h-5.53v-6.08h5.53v-3.52h-5.53v-6h5.53v-3.52h-5.53v-6h5.53v-3.5h-5.53v-6.1h5.53v-3.5h-5.53v-6h5.53v-3.6h-5.53v-6h57.4z" stroke="#fff" stroke-opacity="0" fill="#e81313"/><path d="M-398.28 178.2h35.5v3.53h-35.5v-3.52zM-398.28 201.35h17.74v3.53h-17.74v-3.53zM-398.28 166.62h35.5v3.53h-35.5v-3.53zM-398.28 189.8h35.5v3.5h-35.5v-3.5z" stroke="#fff" stroke-opacity="0" fill="#e81313"/><use xlink:href="#n" transform="matrix(1,0,0,1,-450,246.06770833333331) translate(8.652343750000007 21.52777777777778)"/><use xlink:href="#o" transform="matrix(1,0,0,1,-450,246.06770833333331) translate(39.32725694444444 53.79340277777778)"/><path d="M-180-72.32v3.2l50 27.56 44.7-24.7v9.96L-130-31.37l-47.5-26.4-2.5 1.26v19.2l50 27.46 44.7-24.6v9.96L-130 .34l-47.5-26.4-2.5 1.37v3.2l50 27.57 50-27.58v-19.1l-2.5-1.38-47.5 26.4-44.7-24.8v-9.87l44.7 24.6 50-27.57V-72.1l-2.5-1.28-47.5 26.4-42.4-23.64 42.4-23.44 34.9 19.3 3.1-1.6V-79l-38-21z" stroke="#000" stroke-opacity="0" fill="#ff3621"/><path d="M-92.1-79.02l9.53 5.6-47.4 26.4-42.4-23.6 42.4-23.4 34.83 19.33 3.05-1.7z" stroke="#000" stroke-opacity="0" fill-opacity="0"/><path d="M-180-69.13v12.72l2.56-1.4L-130-31.38l44.7-24.85v-9.97L-130-41.5z" stroke="#000" stroke-opacity="0" fill-opacity="0"/><path d="M-79.97-53.22v12.6l-2.56-1.35-47.44 26.4-44.7-24.85v-9.83l44.7 24.55z" stroke="#000" stroke-opacity="0" fill-opacity="0"/><path d="M-180-37.3v12.64l2.56-1.4L-130 .34l44.7-24.8v-9.92L-130-9.78z" stroke="#000" stroke-opacity="0" fill-opacity="0"/><use xlink:href="#p" transform="matrix(1,0,0,1,-210,15.067708333333314) translate(20.527343750000007 21.52777777777778)"/><use xlink:href="#q" transform="matrix(1,0,0,1,-210,15.067708333333314) translate(26.777343750000007 21.52777777777778)"/><use xlink:href="#r" transform="matrix(1,0,0,1,-210,15.067708333333314) translate(11.315104166666671 53.79340277777778)"/><use xlink:href="#s" transform="matrix(1,0,0,1,-210,15.067708333333314) translate(115.9157986111111 53.79340277777778)"/><use xlink:href="#t" transform="matrix(1,0,0,1,-210,15.067708333333314) translate(45.56532118055556 86.05902777777777)"/><path d="M-140 288c0 6.63-17.9 12-40 12s-40-5.37-40-12v-96c0-6.63 17.9-12 40-12s40 5.37 40 12z" stroke="#82755b" stroke-width="2" fill="#fff"/><path d="M-140 192c0 6.63-17.9 12-40 12s-40-5.37-40-12" stroke="#82755b" stroke-width="2" fill="none"/><use xlink:href="#u" transform="matrix(1,0,0,1,-215,209) translate(-1.9466145833333286 51.083767361111114)"/><path d="M0 288c0 6.63-17.9 12-40 12s-40-5.37-40-12v-96c0-6.63 17.9-12 40-12s40 5.37 40 12z" stroke="#6f7681" stroke-width="2" fill="#fff"/><path d="M0 192c0 6.63-17.9 12-40 12s-40-5.37-40-12" stroke="#6f7681" stroke-width="2" fill="none"/><use xlink:href="#v" transform="matrix(1,0,0,1,-75,209) translate(5.746527777777782 51.09027777777778)"/><path d="M558.65 275.07c0 6.63-17.6 12-39.33 12-21.7 0-39.32-5.38-39.32-12v-96c0-6.63 17.6-12 39.32-12s39.33 5.37 39.33 12z" stroke="#fcce14" stroke-width="2" fill="#fff"/><path d="M558.65 179.07c0 6.63-17.6 12-39.33 12-21.7 0-39.32-5.38-39.32-12" stroke="#fcce14" stroke-width="2" fill="none"/><use xlink:href="#w" transform="matrix(1,0,0,1,485,196.06770833333331) translate(10.053385416666671 51.09027777777778)"/><path d="M-635 61.17l1 .24.94.4.87.53.78.66.66.76.53.87.4.94.23 1 .08.98v123.5l.06.88.2.84.34.8.45.74.56.67.65.57.74.45.8.32.84.2.88.07h187.6v.94h-187.64l-1-.08-.98-.23-.94-.4-.87-.52-.78-.65-.66-.78-.53-.86-.4-.93-.23-1-.08-.98V67.6l-.06-.9-.2-.84-.34-.8-.45-.74-.56-.66-.65-.56-.74-.45-.8-.34-.84-.2-.88-.06H-839.5v-.95h203.52z" stroke="#3a414a" stroke-width=".05" fill="#3a414a"/><path d="M-839.5 62.04h-.5v-.95h.5zm-.94 0H-843v-.95h2.45z" fill="#3a414a"/><path stroke="#3a414a" stroke-width=".05" fill="#3a414a"/><path d="M-421.62 197.07l-14.26 4.63v-9.27z" fill="#3a414a"/><path d="M-420.08 197.07l-16.28 5.3v-10.6zm-15.33 3.98l12.25-3.98-12.26-3.98zM-436.38 197.54h-187.6l-.88.07-.85.22-.8.33-.75.45-.66.56-.57.66-.45.74-.33.8-.2.84-.07.9V371l-.08 1-.24.98-.4.94-.52.87-.66.78-.77.66-.86.53-.94.4-1 .23-.98.08H-839.5v-.96h203.48l.88-.06.85-.2.8-.34.75-.45.66-.56.57-.65.45-.74.33-.8.2-.84.07-.88V203.05l.08-1 .24-.98.4-.94.52-.87.66-.77.77-.67.86-.53.94-.4 1-.23.98-.08h187.64z" stroke="#3a414a" stroke-width=".05" fill="#3a414a"/><path d="M-839.5 377.48h-.5v-.96h.5z" fill="#3a414a"/><path stroke="#3a414a" stroke-width=".05" fill="#3a414a"/><path d="M-421.62 197.07l-14.26 4.63v-9.27z" fill="#3a414a"/><path d="M-420.08 197.07l-16.28 5.3v-10.6zm-15.33 3.98l12.25-3.98-12.26-3.98z" stroke="#3a414a" stroke-width=".05" fill="#3a414a"/><path d="M-620 149.1a6 6 0 0 1 6-6h164.42a6 6 0 0 1 6 6V174a6 6 0 0 1-6 6H-614a6 6 0 0 1-6-6z" fill="none"/><use xlink:href="#x" transform="matrix(1,0,0,1,-615,148.10197916666667) translate(0 21.58376736111111)"/><use xlink:href="#y" transform="matrix(1,0,0,1,-615,148.10197916666667) translate(58.127170138888886 21.58376736111111)"/><use xlink:href="#z" transform="matrix(1,0,0,1,-615,148.10197916666667) translate(115.06076388888889 21.58376736111111)"/><path d="M-349.5 197.07h28a6 6 0 0 1 6 6v18a6 6 0 0 0 6 6h12.12" stroke="#3a414a" fill="none"/><path d="M-349.5 197.54h-.5v-.95h.5z" stroke="#3a414a" stroke-width=".05" fill="#3a414a"/><path d="M-282.62 227.07l-14.26 4.63v-9.27z" stroke="#3a414a" fill="#3a414a"/><path d="M-79.5 460h12.8a6 6 0 0 0 6-6v-99.55" stroke="#3a414a" fill="none"/><path d="M-79.5 460.48h-.5v-.96h.5z" stroke="#3a414a" stroke-width=".05" fill="#3a414a"/><path d="M-60.7 339.7l4.65 14.25h-9.28z" stroke="#3a414a" fill="#3a414a"/><path d="M-195.8 338.57v24.46a6 6 0 0 1-6 6H-234a6 6 0 0 0-6 6V454a6 6 0 0 0 6 6h17.62" stroke="#3a414a" fill="none"/><path d="M-195.32 338.58h-.95v-.5h.95z" stroke="#3a414a" stroke-width=".05" fill="#3a414a"/><path d="M-201.62 460l-14.26 4.63v-9.26z" stroke="#3a414a" fill="#3a414a"/><path d="M125.6 180v9.52H120v3.6h5.6v6H120v3.52h5.6v6.08H120v3.52h5.6v6H120v3.52h5.6v6H120v3.52h5.6v6.08H120v3.52h5.6v6H120v3.6h5.6V260H190v-80zm60.9 76.48h-57.4v-6h5.53v-3.6h-5.53v-6h5.53v-3.52h-5.53v-6.08h5.53v-3.52h-5.53v-6h5.53v-3.52h-5.53v-6h5.53v-3.52h-5.53v-6.08h5.53v-3.52h-5.53v-6h5.53v-3.6h-5.53v-6h57.4z" stroke="#fff" stroke-opacity="0" fill="#e81313"/><path d="M141.72 201.14h35.5v3.52h-35.5v-3.52zM141.72 224.28h17.74v3.53h-17.74v-3.52zM141.72 189.56h35.5v3.52h-35.5v-3.53zM141.72 212.72h35.5v3.53h-35.5v-3.53z" stroke="#fff" stroke-opacity="0" fill="#e81313"/><use xlink:href="#A" transform="matrix(1,0,0,1,90,269) translate(8.652343750000007 21.52777777777778)"/><use xlink:href="#B" transform="matrix(1,0,0,1,90,269) translate(7.409939236111114 53.79340277777778)"/><path d="M41.5 227.07h67.72" stroke="#3a414a" fill="none"/><path d="M41.5 227.54H41v-.95h.5z" stroke="#3a414a" stroke-width=".05" fill="#3a414a"/><path d="M123.98 227.07l-14.26 4.63v-9.27z" stroke="#3a414a" fill="#3a414a"/><path d="M190.5 220h212.12" stroke="#3a414a" fill="none"/><path d="M190.5 220.47h-.5v-.94h.5z" stroke="#3a414a" stroke-width=".05" fill="#3a414a"/><path d="M417.38 220l-14.26 4.63v-9.26z" stroke="#3a414a" fill="#3a414a"/><path d="M400 369.1a6 6 0 0 1 6-6h239.47a6 6 0 0 1 6 6V394a6 6 0 0 1-6 6H406a6 6 0 0 1-6-6z" fill="none"/><g><use xlink:href="#C" transform="matrix(1,0,0,1,405,368.10197916666664) translate(0 21.58376736111111)"/><use xlink:href="#D" transform="matrix(1,0,0,1,405,368.10197916666664) translate(108.23567708333331 21.58376736111111)"/><use xlink:href="#E" transform="matrix(1,0,0,1,405,368.10197916666664) translate(153.70008680555554 21.58376736111111)"/></g><path d="M199.4 173.07a6 6 0 0 1 6-6H394a6 6 0 0 1 6 6v24.9a6 6 0 0 1-6 6H205.4a6 6 0 0 1-6-6z" fill="none"/><g><use xlink:href="#F" transform="matrix(1,0,0,1,204.39755208333338,172.06770833333331) translate(0 21.58376736111111)"/><use xlink:href="#G" transform="matrix(1,0,0,1,204.39755208333338,172.06770833333331) translate(88.48741319444443 21.58376736111111)"/><use xlink:href="#j" transform="matrix(1,0,0,1,204.39755208333338,172.06770833333331) translate(142.22005208333331 21.58376736111111)"/></g><path d="M720 160.52h89.22v118.96H720z" fill-opacity="0"/><path d="M809.22 164.56V273.9c-.04 3.68-2.1 5.58-5.2 5.58h-34.4V165.75c0-3.92 1.9-5.23 5.46-5.23h29.35c3.05 0 4.8 1.3 4.8 4.04z" fill="url(#H)"/><path d="M784.47 195.25l.04 84.14s-27.17.08-39.7.08l-.08-84.3c0-2.87 3.1-4.92 5.8-4.92h28.98c2.74 0 4.97 2.23 4.97 5z" fill="url(#I)"/><path d="M720 224.94v47.17c.04 4.82 2.8 7.32 7.3 7.38 10.2-.24 32.28-.06 32.28-.06 0 .06.04-37.17.04-54.48 0-2.74-2.22-4.94-4.96-4.94h-30c-3 0-4.62 1.5-4.62 4.94z" fill="url(#J)"/><g><use xlink:href="#K" transform="matrix(1,0,0,1,690,288.4828645833333) translate(10.628255208333343 21.52777777777778)"/><use xlink:href="#L" transform="matrix(1,0,0,1,690,288.4828645833333) translate(37.38606770833334 21.52777777777778)"/></g><path d="M620.15 220h83.47" stroke="#3a414a" fill="none"/><path d="M620.16 220.47h-.5v-.94h.5z" stroke="#3a414a" stroke-width=".05" fill="#3a414a"/><path d="M718.38 220l-14.26 4.63v-9.26z" stroke="#3a414a" fill="#3a414a"/><defs><linearGradient gradientUnits="userSpaceOnUse" id="a" x1="-900" y1="116.96" x2="-900" y2="6.08"><stop offset="0%" stop-color="#198ab3"/><stop offset="9%" stop-color="#1f9dc4"/><stop offset="24%" stop-color="#28b5d9"/><stop offset="40%" stop-color="#2dc6e9"/><stop offset="57%" stop-color="#31d1f2"/><stop offset="78%" stop-color="#32d4f5"/></linearGradient><linearGradient gradientUnits="userSpaceOnUse" id="b" x1="-904.44" y1="78.22" x2="-904.44" y2="100.24"><stop offset="0%" stop-color="#c69aeb"/><stop offset="100%" stop-color="#6f4bb2"/></linearGradient><path d="M180 0v-1490h510c348 0 508 209 508 474 0 266-160 477-507 477H370V0H180zm190-706h312c236 0 327-133 327-310 0-176-91-307-329-307H370v617" id="M"/><path d="M613 24c-304 0-509-231-509-576 0-350 205-580 509-580 305 0 511 230 511 580 0 345-206 576-511 576zm0-161c226 0 329-195 329-415 0-222-103-419-329-419-223 0-326 196-326 419 0 220 103 415 326 415" id="N"/><path d="M158 418v-1536h174v179h20c37-59 106-193 324-193 279 0 474 222 474 576 0 356-194 580-473 580-213 0-288-135-325-197h-14v591H158zm492-555c209 0 317-186 317-421 0-232-105-413-317-413-206 0-314 166-314 413 0 249 111 421 314 421" id="O"/><path d="M537 14c-226 0-379-139-379-422v-710h180v695c0 172 97 275 253 275 160 0 281-109 281-300v-670h181V0H879v-209C806-46 684 14 537 14" id="P"/><path d="M338-1490V0H158v-1490h180" id="Q"/><path d="M471 26C259 26 90-98 90-318c0-256 228-303 435-329 202-27 287-16 287-108 0-139-79-219-234-219-161 0-248 86-283 164l-173-57c86-203 278-265 451-265 150 0 419 46 419 395V0H815v-152h-12C765-73 660 26 471 26zm31-159c199 0 310-134 310-271v-155c-30 35-226 55-295 64-131 17-246 59-246 186 0 116 97 176 231 176" id="R"/><path d="M598-1118v154H368v674c0 100 37 144 132 144 23 0 62-6 92-12L629-6c-37 13-88 20-134 20-193 0-307-107-307-290v-688H20v-154h168v-266h180v266h230" id="S"/><path d="M158 0v-1118h180V0H158zm91-1301c-68 0-125-53-125-119s57-119 125-119c69 0 126 53 126 119s-57 119-126 119" id="T"/><path d="M338-670V0H158v-1118h173l1 207c72-158 192-221 342-221 226 0 378 139 378 422V0H872v-695c0-172-96-275-252-275-161 0-282 109-282 300" id="U"/><g id="c"><use transform="matrix(0.010850694444444444,0,0,0.010850694444444444,0,0)" xlink:href="#M"/><use transform="matrix(0.010850694444444444,0,0,0.010850694444444444,14.073350694444445,0)" xlink:href="#N"/><use transform="matrix(0.010850694444444444,0,0,0.010850694444444444,27.39800347222222,0)" xlink:href="#O"/><use transform="matrix(0.010850694444444444,0,0,0.010850694444444444,41.00477430555556,0)" xlink:href="#P"/><use transform="matrix(0.010850694444444444,0,0,0.010850694444444444,54.14496527777778,0)" xlink:href="#Q"/><use transform="matrix(0.010850694444444444,0,0,0.010850694444444444,59.52690972222222,0)" xlink:href="#R"/><use transform="matrix(0.010850694444444444,0,0,0.010850694444444444,72.00520833333333,0)" xlink:href="#S"/><use transform="matrix(0.010850694444444444,0,0,0.010850694444444444,79.2751736111111,0)" xlink:href="#T"/><use transform="matrix(0.010850694444444444,0,0,0.010850694444444444,84.65711805555554,0)" xlink:href="#N"/><use transform="matrix(0.010850694444444444,0,0,0.010850694444444444,97.98177083333331,0)" xlink:href="#U"/></g><path d="M645 0H180v-1490h484c435 0 692 280 692 742 0 466-257 748-711 748zM370-168h263c363 0 539-218 539-580 0-358-176-574-521-574H370v1154" id="V"/><g id="d"><use transform="matrix(0.010850694444444444,0,0,0.010850694444444444,0,0)" xlink:href="#V"/><use transform="matrix(0.010850694444444444,0,0,0.010850694444444444,16.03732638888889,0)" xlink:href="#R"/><use transform="matrix(0.010850694444444444,0,0,0.010850694444444444,28.515625,0)" xlink:href="#S"/><use transform="matrix(0.010850694444444444,0,0,0.010850694444444444,35.89409722222222,0)" xlink:href="#R"/></g><path d="M798-719v166H144v-166h654" id="W"/><use transform="matrix(0.010850694444444444,0,0,0.010850694444444444,0,0)" xlink:href="#W" id="e"/><path d="M52 0l541-1490h220L1361 0h-200l-149-416H398L254 0H52zm404-582h497c-103-290-145-390-251-756-108 377-145 460-246 756" id="X"/><path d="M370-1490V0H180v-1490h190" id="Y"/><g id="f"><use transform="matrix(0.010850694444444444,0,0,0.010850694444444444,0,0)" xlink:href="#X"/><use transform="matrix(0.010850694444444444,0,0,0.010850694444444444,15.33203125,0)" xlink:href="#M"/><use transform="matrix(0.010850694444444444,0,0,0.010850694444444444,29.524739583333332,0)" xlink:href="#Y"/></g><use transform="matrix(0.010850694444444444,0,0,0.010850694444444444,0,0)" xlink:href="#W" id="g"/><linearGradient gradientUnits="userSpaceOnUse" id="h" x1="-960" y1="320" x2="-840" y2="434"><stop offset="0%" stop-color="#2395ff"/><stop offset="100%" stop-color="#0057bc"/></linearGradient><path d="M180 0v-1490h528c311 0 458 177 458 395 0 191-114 278-244 313v14c139 9 302 137 302 371 0 225-148 397-499 397H180zm190-168h350c232 0 321-102 321-231 0-149-120-277-311-277H370v508zm0-668h328c160 0 286-101 286-255 0-129-87-231-280-231H370v486" id="Z"/><path d="M180 0v-1490h190v1322h690V0H180" id="aa"/><path d="M657 26c-323 0-524-166-541-416h195c15 169 171 246 346 246 202 0 356-106 356-265 5-203-294-238-475-293-239-73-380-191-380-389 0-252 224-419 512-419 294 0 499 171 508 396H992c-17-145-151-228-328-228-193 0-321 102-321 242 0 156 175 211 284 241l149 41c160 44 422 134 422 412 0 244-197 432-541 432" id="ab"/><g id="i"><use transform="matrix(0.010850694444444444,0,0,0.010850694444444444,0,0)" xlink:href="#Z"/><use transform="matrix(0.010850694444444444,0,0,0.010850694444444444,14.539930555555555,0)" xlink:href="#aa"/><use transform="matrix(0.010850694444444444,0,0,0.010850694444444444,27.10503472222222,0)" xlink:href="#ab"/></g><g id="j"><use transform="matrix(0.010850694444444444,0,0,0.010850694444444444,0,0)" xlink:href="#V"/><use transform="matrix(0.010850694444444444,0,0,0.010850694444444444,16.03732638888889,0)" xlink:href="#R"/><use transform="matrix(0.010850694444444444,0,0,0.010850694444444444,28.515625,0)" xlink:href="#S"/><use transform="matrix(0.010850694444444444,0,0,0.010850694444444444,35.89409722222222,0)" xlink:href="#R"/></g><path d="M628 24c-324 0-524-230-524-574 0-343 198-582 503-582 237 0 487 146 487 559v75H286c9 234 145 362 343 362 132 0 231-58 273-172l174 48C1024-91 857 24 628 24zM287-650h624c-17-190-120-322-304-322-192 0-309 151-320 322" id="ac"/><g id="k"><use transform="matrix(0.010850694444444444,0,0,0.010850694444444444,0,0)" xlink:href="#V"/><use transform="matrix(0.010850694444444444,0,0,0.010850694444444444,16.03732638888889,0)" xlink:href="#ac"/><use transform="matrix(0.010850694444444444,0,0,0.010850694444444444,28.99305555555556,0)" xlink:href="#Q"/><use transform="matrix(0.010850694444444444,0,0,0.010850694444444444,34.700520833333336,0)" xlink:href="#S"/><use transform="matrix(0.010850694444444444,0,0,0.010850694444444444,42.07899305555556,0)" xlink:href="#R"/></g><path d="M635 20c-292 0-500-160-510-396h192c11 142 145 229 315 229 187 0 323-105 323-260 0-161-125-274-346-274H488v-165h121c174 0 294-100 294-254 0-148-104-245-266-245-152 0-291 85-297 230H157c8-234 222-395 484-395 278 0 448 188 448 400 0 168-95 291-247 336v12c190 31 301 169 301 357 0 244-216 425-508 425" id="ad"/><g id="l"><use transform="matrix(0.010850694444444444,0,0,0.010850694444444444,0,0)" xlink:href="#ab"/><use transform="matrix(0.010850694444444444,0,0,0.010850694444444444,14.2578125,0)" xlink:href="#ad"/></g><path d="M158 0v-1118h174v172h12c41-113 157-188 290-188 26 0 70 2 91 3v181c-11-2-60-10-108-10-161 0-279 109-279 260V0H158" id="ae"/><path d="M611 442c-248 0-391-105-460-228l146-94c47 65 117 165 314 165 178 0 307-82 307-266v-224h-17C863-141 792-18 576-18c-268 0-472-195-472-546 0-346 197-568 476-568 216 0 288 133 326 193h17v-179h175V29c0 289-215 413-487 413zm-5-620c203 0 314-146 314-390 0-237-108-403-314-403-213 0-319 180-319 403 0 230 109 390 319 390" id="af"/><g id="m"><use transform="matrix(0.010850694444444444,0,0,0.010850694444444444,0,0)" xlink:href="#ab"/><use transform="matrix(0.010850694444444444,0,0,0.010850694444444444,14.2578125,0)" xlink:href="#S"/><use transform="matrix(0.010850694444444444,0,0,0.010850694444444444,21.31076388888889,0)" xlink:href="#N"/><use transform="matrix(0.010850694444444444,0,0,0.010850694444444444,34.635416666666664,0)" xlink:href="#ae"/><use transform="matrix(0.010850694444444444,0,0,0.010850694444444444,43.00130208333333,0)" xlink:href="#R"/><use transform="matrix(0.010850694444444444,0,0,0.010850694444444444,55.47960069444444,0)" xlink:href="#af"/><use transform="matrix(0.010850694444444444,0,0,0.010850694444444444,69.10807291666666,0)" xlink:href="#ac"/></g><path d="M677 24c-213 0-288-135-325-197h-20V0H158v-1490h180v551h14c37-59 106-193 324-193 279 0 474 222 474 576 0 356-194 580-473 580zm-27-161c209 0 317-186 317-421 0-232-105-413-317-413-206 0-314 166-314 413 0 249 111 421 314 421" id="ag"/><path d="M613 24c-304 0-509-231-509-576 0-350 205-580 509-580 216 0 392 114 453 309l-173 49c-33-115-133-197-280-197-223 0-326 196-326 419 0 220 103 415 326 415 150 0 252-85 285-206l172 49C1010-95 832 24 613 24" id="ah"/><path d="M158 0v-1490h180v865h22l478-493h223L593-638 1096 0H865L456-523 338-412V0H158" id="ai"/><path d="M538 24C308 24 148-78 108-271l171-41c32 123 123 178 257 178 156 0 256-77 256-169 0-77-54-128-164-154l-186-44c-203-48-300-148-300-305 0-192 176-326 414-326 230 0 351 112 402 269l-163 42c-31-80-94-158-238-158-133 0-233 69-233 162 0 83 57 129 188 160l169 40c203 48 298 149 298 302 0 196-179 339-441 339" id="aj"/><g id="n"><use transform="matrix(0.010850694444444444,0,0,0.010850694444444444,0,0)" xlink:href="#V"/><use transform="matrix(0.010850694444444444,0,0,0.010850694444444444,16.03732638888889,0)" xlink:href="#R"/><use transform="matrix(0.010850694444444444,0,0,0.010850694444444444,28.515625,0)" xlink:href="#S"/><use transform="matrix(0.010850694444444444,0,0,0.010850694444444444,35.89409722222222,0)" xlink:href="#R"/><use transform="matrix(0.010850694444444444,0,0,0.010850694444444444,48.37239583333333,0)" xlink:href="#ag"/><use transform="matrix(0.010850694444444444,0,0,0.010850694444444444,61.97916666666666,0)" xlink:href="#ae"/><use transform="matrix(0.010850694444444444,0,0,0.010850694444444444,70.69227430555554,0)" xlink:href="#T"/><use transform="matrix(0.010850694444444444,0,0,0.010850694444444444,76.07421874999999,0)" xlink:href="#ah"/><use transform="matrix(0.010850694444444444,0,0,0.010850694444444444,88.76953124999999,0)" xlink:href="#ai"/><use transform="matrix(0.010850694444444444,0,0,0.010850694444444444,100.96571180555556,0)" xlink:href="#aj"/></g><path d="M545 20c-263 0-445-160-445-446v-80h190v80c0 182 102 279 255 279 152 0 254-97 254-279v-1064h190v1064c0 286-181 446-444 446" id="ak"/><g id="o"><use transform="matrix(0.010850694444444444,0,0,0.010850694444444444,0,0)" xlink:href="#ak"/><use transform="matrix(0.010850694444444444,0,0,0.010850694444444444,12.684461805555555,0)" xlink:href="#N"/><use transform="matrix(0.010850694444444444,0,0,0.010850694444444444,26.009114583333332,0)" xlink:href="#ag"/><use transform="matrix(0.010850694444444444,0,0,0.010850694444444444,39.615885416666664,0)" xlink:href="#aj"/></g><g id="q"><use transform="matrix(0.010850694444444444,0,0,0.010850694444444444,0,0)" xlink:href="#V"/><use transform="matrix(0.010850694444444444,0,0,0.010850694444444444,16.03732638888889,0)" xlink:href="#R"/><use transform="matrix(0.010850694444444444,0,0,0.010850694444444444,28.515625,0)" xlink:href="#S"/><use transform="matrix(0.010850694444444444,0,0,0.010850694444444444,35.89409722222222,0)" xlink:href="#R"/><use transform="matrix(0.010850694444444444,0,0,0.010850694444444444,48.37239583333333,0)" xlink:href="#ag"/><use transform="matrix(0.010850694444444444,0,0,0.010850694444444444,61.97916666666666,0)" xlink:href="#ae"/><use transform="matrix(0.010850694444444444,0,0,0.010850694444444444,70.69227430555554,0)" xlink:href="#T"/><use transform="matrix(0.010850694444444444,0,0,0.010850694444444444,76.07421874999999,0)" xlink:href="#ah"/><use transform="matrix(0.010850694444444444,0,0,0.010850694444444444,88.76953124999999,0)" xlink:href="#ai"/><use transform="matrix(0.010850694444444444,0,0,0.010850694444444444,100.96571180555556,0)" xlink:href="#aj"/></g><path d="M180 0v-1490h270l367 940c28 72 75 218 110 339 35-117 81-264 110-339l362-940h271V0h-187c2-448-5-837 7-1287-157 497-311 829-483 1287H842C666-458 514-784 354-1284c12 438 5 843 7 1284H180" id="al"/><path d="M577 24c-279 0-473-224-473-580 0-354 195-576 474-576 218 0 287 134 324 193h14v-551h180V0H922v-173h-20C865-111 790 24 577 24zm27-161c203 0 314-172 314-421 0-247-108-413-314-413-212 0-317 181-317 413 0 235 108 421 317 421" id="am"/><g id="r"><use transform="matrix(0.010850694444444444,0,0,0.010850694444444444,0,0)" xlink:href="#al"/><use transform="matrix(0.010850694444444444,0,0,0.010850694444444444,20.07378472222222,0)" xlink:href="#R"/><use transform="matrix(0.010850694444444444,0,0,0.010850694444444444,32.55208333333333,0)" xlink:href="#U"/><use transform="matrix(0.010850694444444444,0,0,0.010850694444444444,45.68142361111111,0)" xlink:href="#R"/><use transform="matrix(0.010850694444444444,0,0,0.010850694444444444,58.15972222222221,0)" xlink:href="#af"/><use transform="matrix(0.010850694444444444,0,0,0.010850694444444444,71.78819444444443,0)" xlink:href="#ac"/><use transform="matrix(0.010850694444444444,0,0,0.010850694444444444,84.7439236111111,0)" xlink:href="#am"/></g><path d="M763 24c-353 0-583-224-583-531v-983h190v968c0 214 149 370 393 370 243 0 391-156 391-370v-968h190v983c0 307-230 531-581 531" id="an"/><path d="M783 20c-382 0-661-292-661-764 0-473 279-766 661-766 302 0 548 182 601 489h-190c-42-204-217-313-411-313-268 0-476 208-476 590 0 381 209 588 476 588 195 0 369-110 411-313h190c-52 303-296 489-601 489" id="ao"/><g id="s"><use transform="matrix(0.010850694444444444,0,0,0.010850694444444444,0,0)" xlink:href="#an"/><use transform="matrix(0.010850694444444444,0,0,0.010850694444444444,16.536458333333332,0)" xlink:href="#ao"/></g><path d="M98-1322v-168h1126v168H757V0H567v-1322H98" id="ap"/><g id="t"><use transform="matrix(0.010850694444444444,0,0,0.010850694444444444,0,0)" xlink:href="#ap"/><use transform="matrix(0.010850694444444444,0,0,0.010850694444444444,12.71701388888889,0)" xlink:href="#R"/><use transform="matrix(0.010850694444444444,0,0,0.010850694444444444,25.1953125,0)" xlink:href="#ag"/><use transform="matrix(0.010850694444444444,0,0,0.010850694444444444,38.80208333333333,0)" xlink:href="#Q"/><use transform="matrix(0.010850694444444444,0,0,0.010850694444444444,44.18402777777777,0)" xlink:href="#ac"/><use transform="matrix(0.010850694444444444,0,0,0.010850694444444444,57.139756944444436,0)" xlink:href="#aj"/></g><path d="M126 0v-134l627-806v-11H146v-167h839v143L376-178v11h629V0H126" id="aq"/><g id="u"><use transform="matrix(0.010850694444444444,0,0,0.010850694444444444,0,0)" xlink:href="#Z"/><use transform="matrix(0.010850694444444444,0,0,0.010850694444444444,14.539930555555555,0)" xlink:href="#ae"/><use transform="matrix(0.010850694444444444,0,0,0.010850694444444444,22.53689236111111,0)" xlink:href="#N"/><use transform="matrix(0.010850694444444444,0,0,0.010850694444444444,35.861545138888886,0)" xlink:href="#U"/><use transform="matrix(0.010850694444444444,0,0,0.010850694444444444,48.990885416666664,0)" xlink:href="#aq"/><use transform="matrix(0.010850694444444444,0,0,0.010850694444444444,60.937499999999986,0)" xlink:href="#ac"/></g><path d="M481 0L54-1118h197c107 314 236 620 325 951 87-331 217-637 324-951h197L670 0H481" id="ar"/><g id="v"><use transform="matrix(0.010850694444444444,0,0,0.010850694444444444,0,0)" xlink:href="#ab"/><use transform="matrix(0.010850694444444444,0,0,0.010850694444444444,14.2578125,0)" xlink:href="#T"/><use transform="matrix(0.010850694444444444,0,0,0.010850694444444444,19.639756944444443,0)" xlink:href="#Q"/><use transform="matrix(0.010850694444444444,0,0,0.010850694444444444,25.13020833333333,0)" xlink:href="#ar"/><use transform="matrix(0.010850694444444444,0,0,0.010850694444444444,37.18532986111111,0)" xlink:href="#ac"/><use transform="matrix(0.010850694444444444,0,0,0.010850694444444444,50.14105902777778,0)" xlink:href="#ae"/></g><path d="M789 20c-398 0-667-293-667-764 0-473 273-766 655-766 315 0 558 198 612 487h-196c-61-191-204-311-415-311-262 0-471 207-471 590 0 380 208 588 482 588 249 0 420-165 425-427H828v-166h572v163c0 370-256 606-611 606" id="as"/><g id="w"><use transform="matrix(0.010850694444444444,0,0,0.010850694444444444,0,0)" xlink:href="#as"/><use transform="matrix(0.010850694444444444,0,0,0.010850694444444444,16.57986111111111,0)" xlink:href="#N"/><use transform="matrix(0.010850694444444444,0,0,0.010850694444444444,29.90451388888889,0)" xlink:href="#Q"/><use transform="matrix(0.010850694444444444,0,0,0.010850694444444444,35.28645833333333,0)" xlink:href="#am"/></g><path d="M140 405l46-156c120 36 205 19 263-150l32-93L54-1118h197c107 313 237 620 324 950 87-331 219-637 326-950h196L606 167c-68 178-176 259-334 259-64 0-113-12-132-21" id="at"/><g id="x"><use transform="matrix(0.010850694444444444,0,0,0.010850694444444444,0,0)" xlink:href="#V"/><use transform="matrix(0.010850694444444444,0,0,0.010850694444444444,16.03732638888889,0)" xlink:href="#R"/><use transform="matrix(0.010850694444444444,0,0,0.010850694444444444,28.515625,0)" xlink:href="#T"/><use transform="matrix(0.010850694444444444,0,0,0.010850694444444444,33.89756944444444,0)" xlink:href="#Q"/><use transform="matrix(0.010850694444444444,0,0,0.010850694444444444,39.38802083333333,0)" xlink:href="#at"/></g><g id="y"><use transform="matrix(0.010850694444444444,0,0,0.010850694444444444,0,0)" xlink:href="#ao"/><use transform="matrix(0.010850694444444444,0,0,0.010850694444444444,16.23263888888889,0)" xlink:href="#ae"/><use transform="matrix(0.010850694444444444,0,0,0.010850694444444444,24.229600694444443,0)" xlink:href="#N"/><use transform="matrix(0.010850694444444444,0,0,0.010850694444444444,37.55425347222222,0)" xlink:href="#U"/></g><g id="z"><use transform="matrix(0.010850694444444444,0,0,0.010850694444444444,0,0)" xlink:href="#ak"/><use transform="matrix(0.010850694444444444,0,0,0.010850694444444444,12.684461805555555,0)" xlink:href="#N"/><use transform="matrix(0.010850694444444444,0,0,0.010850694444444444,26.009114583333332,0)" xlink:href="#ag"/><use transform="matrix(0.010850694444444444,0,0,0.010850694444444444,39.615885416666664,0)" xlink:href="#aj"/></g><g id="A"><use transform="matrix(0.010850694444444444,0,0,0.010850694444444444,0,0)" xlink:href="#V"/><use transform="matrix(0.010850694444444444,0,0,0.010850694444444444,16.03732638888889,0)" xlink:href="#R"/><use transform="matrix(0.010850694444444444,0,0,0.010850694444444444,28.515625,0)" xlink:href="#S"/><use transform="matrix(0.010850694444444444,0,0,0.010850694444444444,35.89409722222222,0)" xlink:href="#R"/><use transform="matrix(0.010850694444444444,0,0,0.010850694444444444,48.37239583333333,0)" xlink:href="#ag"/><use transform="matrix(0.010850694444444444,0,0,0.010850694444444444,61.97916666666666,0)" xlink:href="#ae"/><use transform="matrix(0.010850694444444444,0,0,0.010850694444444444,70.69227430555554,0)" xlink:href="#T"/><use transform="matrix(0.010850694444444444,0,0,0.010850694444444444,76.07421874999999,0)" xlink:href="#ah"/><use transform="matrix(0.010850694444444444,0,0,0.010850694444444444,88.76953124999999,0)" xlink:href="#ai"/><use transform="matrix(0.010850694444444444,0,0,0.010850694444444444,100.96571180555556,0)" xlink:href="#aj"/></g><g id="B"><use transform="matrix(0.010850694444444444,0,0,0.010850694444444444,0,0)" xlink:href="#X"/><use transform="matrix(0.010850694444444444,0,0,0.010850694444444444,15.33203125,0)" xlink:href="#P"/><use transform="matrix(0.010850694444444444,0,0,0.010850694444444444,28.47222222222222,0)" xlink:href="#S"/><use transform="matrix(0.010850694444444444,0,0,0.010850694444444444,35.52517361111111,0)" xlink:href="#N"/><use transform="matrix(0.010850694444444444,0,0,0.010850694444444444,48.849826388888886,0)" xlink:href="#Q"/><use transform="matrix(0.010850694444444444,0,0,0.010850694444444444,54.23177083333333,0)" xlink:href="#N"/><use transform="matrix(0.010850694444444444,0,0,0.010850694444444444,67.77343749999999,0)" xlink:href="#R"/><use transform="matrix(0.010850694444444444,0,0,0.010850694444444444,80.2517361111111,0)" xlink:href="#am"/><use transform="matrix(0.010850694444444444,0,0,0.010850694444444444,93.85850694444441,0)" xlink:href="#ac"/><use transform="matrix(0.010850694444444444,0,0,0.010850694444444444,106.81423611111111,0)" xlink:href="#ae"/></g><path d="M180 0v-1490h510c348 0 508 194 508 460 0 198-88 351-276 417L1256 0h-220L726-579c-117 2-238 0-356 1V0H180zm190-747h312c235 0 327-108 327-283 0-177-92-293-329-293H370v576" id="au"/><g id="C"><use transform="matrix(0.010850694444444444,0,0,0.010850694444444444,0,0)" xlink:href="#au"/><use transform="matrix(0.010850694444444444,0,0,0.010850694444444444,13.975694444444445,0)" xlink:href="#ac"/><use transform="matrix(0.010850694444444444,0,0,0.010850694444444444,26.931423611111104,0)" xlink:href="#O"/><use transform="matrix(0.010850694444444444,0,0,0.010850694444444444,40.53819444444444,0)" xlink:href="#N"/><use transform="matrix(0.010850694444444444,0,0,0.010850694444444444,53.86284722222222,0)" xlink:href="#ae"/><use transform="matrix(0.010850694444444444,0,0,0.010850694444444444,62.57595486111111,0)" xlink:href="#S"/><use transform="matrix(0.010850694444444444,0,0,0.010850694444444444,69.84592013888889,0)" xlink:href="#T"/><use transform="matrix(0.010850694444444444,0,0,0.010850694444444444,75.22786458333333,0)" xlink:href="#U"/><use transform="matrix(0.010850694444444444,0,0,0.010850694444444444,88.3572048611111,0)" xlink:href="#af"/></g><g id="D"><use transform="matrix(0.010850694444444444,0,0,0.010850694444444444,0,0)" xlink:href="#R"/><use transform="matrix(0.010850694444444444,0,0,0.010850694444444444,12.47829861111111,0)" xlink:href="#U"/><use transform="matrix(0.010850694444444444,0,0,0.010850694444444444,25.60763888888889,0)" xlink:href="#am"/></g><g id="E"><use transform="matrix(0.010850694444444444,0,0,0.010850694444444444,0,0)" xlink:href="#X"/><use transform="matrix(0.010850694444444444,0,0,0.010850694444444444,15.33203125,0)" xlink:href="#U"/><use transform="matrix(0.010850694444444444,0,0,0.010850694444444444,28.461371527777775,0)" xlink:href="#R"/><use transform="matrix(0.010850694444444444,0,0,0.010850694444444444,40.939670138888886,0)" xlink:href="#Q"/><use transform="matrix(0.010850694444444444,0,0,0.010850694444444444,46.43012152777778,0)" xlink:href="#at"/><use transform="matrix(0.010850694444444444,0,0,0.010850694444444444,58.91927083333333,0)" xlink:href="#aj"/><use transform="matrix(0.010850694444444444,0,0,0.010850694444444444,70.64887152777777,0)" xlink:href="#T"/><use transform="matrix(0.010850694444444444,0,0,0.010850694444444444,76.03081597222221,0)" xlink:href="#aj"/></g><g id="F"><use transform="matrix(0.010850694444444444,0,0,0.010850694444444444,0,0)" xlink:href="#X"/><use transform="matrix(0.010850694444444444,0,0,0.010850694444444444,15.33203125,0)" xlink:href="#O"/><use transform="matrix(0.010850694444444444,0,0,0.010850694444444444,28.938802083333332,0)" xlink:href="#O"/><use transform="matrix(0.010850694444444444,0,0,0.010850694444444444,42.545572916666664,0)" xlink:href="#ac"/><use transform="matrix(0.010850694444444444,0,0,0.010850694444444444,55.50130208333333,0)" xlink:href="#U"/><use transform="matrix(0.010850694444444444,0,0,0.010850694444444444,68.6306423611111,0)" xlink:href="#am"/></g><path d="M180 0v-1490h224l606 953c40 63 108 177 176 312-27-437-7-821-13-1265h190V0h-226C860-448 622-778 356-1262c27 476 11 792 15 1262H180" id="av"/><path d="M409 0L70-1118h191c89 329 165 560 243 925 75-353 154-601 240-925h192c85 325 161 564 235 922 77-354 157-598 244-922h191L1267 0h-179c-86-307-176-590-250-913C763-588 675-308 588 0H409" id="aw"/><g id="G"><use transform="matrix(0.010850694444444444,0,0,0.010850694444444444,0,0)" xlink:href="#av"/><use transform="matrix(0.010850694444444444,0,0,0.010850694444444444,16.74262152777778,0)" xlink:href="#ac"/><use transform="matrix(0.010850694444444444,0,0,0.010850694444444444,29.296875,0)" xlink:href="#aw"/></g><linearGradient gradientUnits="userSpaceOnUse" id="H" x1="761.68" y1="161.15" x2="813.92" y2="271.99"><stop offset="0%" stop-color="#e6ad10"/><stop offset="100%" stop-color="#c87e0e"/></linearGradient><linearGradient gradientUnits="userSpaceOnUse" id="I" x1="741.43" y1="191.95" x2="785.57" y2="277.24"><stop offset="0%" stop-color="#f6d751"/><stop offset="100%" stop-color="#e6ad10"/></linearGradient><linearGradient gradientUnits="userSpaceOnUse" id="J" x1="725.46" y1="217.69" x2="749.74" y2="275.29"><stop offset="0%" stop-color="#f9e589"/><stop offset="100%" stop-color="#f6d751"/></linearGradient><g id="K"><use transform="matrix(0.010850694444444444,0,0,0.010850694444444444,0,0)" xlink:href="#Z"/><use transform="matrix(0.010850694444444444,0,0,0.010850694444444444,14.539930555555555,0)" xlink:href="#Y"/></g><g id="L"><use transform="matrix(0.010850694444444444,0,0,0.010850694444444444,0,0)" xlink:href="#au"/><use transform="matrix(0.010850694444444444,0,0,0.010850694444444444,13.975694444444445,0)" xlink:href="#ac"/><use transform="matrix(0.010850694444444444,0,0,0.010850694444444444,26.931423611111104,0)" xlink:href="#O"/><use transform="matrix(0.010850694444444444,0,0,0.010850694444444444,40.53819444444444,0)" xlink:href="#N"/><use transform="matrix(0.010850694444444444,0,0,0.010850694444444444,53.86284722222222,0)" xlink:href="#ae"/><use transform="matrix(0.010850694444444444,0,0,0.010850694444444444,62.57595486111111,0)" xlink:href="#S"/><use transform="matrix(0.010850694444444444,0,0,0.010850694444444444,69.84592013888889,0)" xlink:href="#T"/><use transform="matrix(0.010850694444444444,0,0,0.010850694444444444,75.22786458333333,0)" xlink:href="#U"/><use transform="matrix(0.010850694444444444,0,0,0.010850694444444444,88.3572048611111,0)" xlink:href="#af"/></g></defs></g></svg>